<?xml version="1.0" standalone="no"?>
<!DOCTYPE svg PUBLIC "-//W3C//DTD SVG 20010904//EN"
 "http://www.w3.org/TR/2001/REC-SVG-20010904/DTD/svg10.dtd">
<svg version="1.0" xmlns="http://www.w3.org/2000/svg"
 width="700.000000pt" height="700.000000pt" viewBox="0 0 700.000000 700.000000"
 preserveAspectRatio="xMidYMid meet">
<metadata>
Created by potrace 1.14, written by Peter Selinger 2001-2017
</metadata>
<g transform="translate(0.000000,700.000000) scale(0.100000,-0.100000)"
fill="#000000" stroke="none">
<path d="M6266 5683 c-1 -1 -1273 -5 -2827 -8 -1553 -3 -2840 -8 -2859 -11
-194 -32 -236 -303 -60 -390 43 -22 58 -23 420 -28 423 -7 433 -7 640 -32 223
-27 437 -107 533 -198 91 -87 159 -247 182 -426 4 -30 9 -66 11 -80 22 -161
22 -897 -1 -1175 -24 -291 -42 -419 -80 -567 -146 -571 -426 -784 -1440 -1098
-55 -17 -113 -38 -130 -47 -141 -77 -138 -290 6 -364 81 -41 107 -36 488 90
567 188 865 348 1103 592 198 203 335 484 403 829 11 56 36 216 40 252 2 24 7
63 10 88 5 48 11 115 20 245 14 217 22 926 11 1045 -3 30 -8 87 -11 125 -10
113 -19 163 -51 294 -32 130 -87 258 -153 357 -28 42 -51 76 -51 77 0 1 459 3
1019 4 l1020 2 -2 -1937 c-2 -1869 -1 -1938 17 -1971 38 -71 136 -127 198
-116 61 12 82 18 96 29 44 34 80 79 90 112 8 26 12 180 12 488 1 248 2 1112 4
1920 1 887 6 1471 12 1473 5 1 362 4 794 5 l785 3 45 25 c129 72 147 241 37
340 -43 39 -93 51 -220 53 -60 1 -110 1 -111 0z"/>
</g>
</svg>
