<?xml version="1.0" standalone="no"?>
<!DOCTYPE svg PUBLIC "-//W3C//DTD SVG 20010904//EN"
 "http://www.w3.org/TR/2001/REC-SVG-20010904/DTD/svg10.dtd">
<svg version="1.0" xmlns="http://www.w3.org/2000/svg"
 width="3636.000000pt" height="3636.000000pt" viewBox="0 0 3636.000000 3636.000000"
 preserveAspectRatio="xMidYMid meet">
<metadata>
Created by potrace 1.14, written by Peter Selinger 2001-2017
</metadata>
<g transform="translate(0.000000,3636.000000) scale(0.100000,-0.100000)"
fill="#000000" stroke="none">
<path d="M18660 26663 c0 -28 3 -34 10 -23 13 20 13 60 0 60 -5 0 -10 -17 -10
-37z"/>
<path d="M18530 26680 c0 -5 5 -10 11 -10 5 0 7 5 4 10 -3 6 -8 10 -11 10 -2
0 -4 -4 -4 -10z"/>
<path d="M19294 26644 c3 -27 9 -78 13 -114 6 -60 5 -64 -10 -51 -10 7 -17 27
-17 43 l0 30 -36 -21 -36 -21 -29 21 c-24 17 -29 28 -29 60 0 46 -4 47 -100
20 -56 -16 -65 -21 -68 -43 -3 -27 -31 -38 -97 -38 -33 0 -45 13 -45 50 0 31
-26 44 -60 30 -24 -10 -33 -10 -45 0 -10 9 -15 9 -15 1 0 -6 5 -11 10 -11 6 0
10 -14 10 -31 0 -29 -2 -31 -26 -25 -18 5 -32 2 -44 -9 -15 -14 -18 -14 -30 0
-7 8 -10 22 -6 30 6 17 -37 65 -59 65 -8 0 -17 -6 -21 -12 -6 -9 -10 -5 -15
12 -4 15 -7 -4 -8 -52 l-1 -76 -39 2 c-21 1 -47 8 -56 16 -13 11 -23 11 -48 2
-36 -14 -57 -2 -57 34 0 12 -4 26 -10 29 -5 3 -10 -3 -10 -13 0 -11 -7 -37
-16 -58 -9 -20 -13 -50 -10 -64 5 -28 -8 -50 -31 -50 -9 0 -13 17 -13 58 0 33
-6 66 -14 77 -7 11 -16 29 -18 40 -3 11 -8 -24 -12 -78 -7 -82 -11 -97 -24
-95 -18 3 -37 36 -49 83 -7 26 -8 22 -11 -27 -3 -62 -21 -76 -48 -40 -13 16
-15 16 -25 0 -17 -30 -39 -22 -39 15 0 36 -23 77 -36 64 -4 -4 -3 -28 4 -53 7
-25 10 -49 7 -53 -6 -11 -81 3 -99 18 -7 6 -16 25 -20 41 -6 32 -57 63 -64 41
-2 -6 -8 -11 -14 -11 -5 0 -7 9 -3 20 5 15 3 18 -9 14 -25 -9 -64 22 -68 53
-2 17 -10 29 -20 31 -15 3 -18 -4 -18 -47 0 -28 5 -51 10 -51 6 0 10 -9 10
-20 0 -24 -15 -26 -24 -3 -5 11 -10 13 -17 6 -7 -7 -7 -31 0 -74 14 -86 -1
-133 -40 -125 -26 5 -26 4 -16 -23 11 -30 5 -61 -13 -61 -6 0 -15 11 -20 24
-11 29 -63 72 -68 56 -2 -6 4 -17 14 -25 18 -13 18 -15 3 -30 -15 -16 -18 -15
-37 13 -27 37 -56 48 -157 61 -44 5 -81 15 -83 20 -2 6 -10 11 -17 11 -21 0
-82 39 -89 55 -12 31 -25 13 -28 -37 -3 -51 -4 -53 -33 -53 -27 0 -30 4 -33
33 -4 40 -17 41 -37 2 -17 -33 -50 -32 -42 1 3 11 1 19 -4 19 -5 0 -9 -7 -9
-15 0 -17 -55 -21 -65 -5 -9 15 -35 12 -35 -4 0 -7 9 -16 20 -19 15 -4 20 -14
20 -38 0 -30 -1 -31 -18 -16 -26 24 -39 21 -45 -9 -3 -20 1 -27 19 -34 13 -5
24 -16 24 -24 0 -28 -58 -35 -103 -11 -27 14 -113 19 -150 8 -14 -4 -16 -11
-11 -38 7 -41 -12 -55 -67 -48 -62 9 -87 -2 -91 -40 -3 -30 -5 -32 -41 -29
-33 3 -39 -1 -49 -25 -10 -25 -12 -26 -16 -8 -5 22 -21 45 -32 45 -4 0 -12
-19 -19 -42 -12 -37 -11 -43 5 -55 10 -7 28 -13 41 -13 23 0 43 -26 43 -54 0
-22 -73 -22 -90 -1 -9 11 -16 13 -24 5 -13 -13 -59 -13 -51 0 3 6 15 10 26 10
12 0 19 7 19 20 0 27 -16 25 -89 -7 -59 -26 -70 -43 -30 -43 12 0 19 -5 16
-12 -2 -9 -19 -12 -48 -10 -121 7 -149 0 -149 -38 0 -10 -7 -23 -15 -30 -8 -7
-15 -21 -15 -31 0 -16 -7 -18 -52 -16 -45 2 -53 -1 -56 -18 -2 -11 -16 -32
-31 -47 -24 -25 -33 -27 -102 -28 -82 0 -109 -14 -109 -59 0 -12 -7 -24 -15
-27 -8 -4 -15 -14 -15 -24 0 -10 -6 -20 -14 -23 -8 -3 -16 -16 -18 -29 -4 -32
-43 -36 -74 -7 -18 17 -27 20 -36 11 -8 -8 -5 -14 16 -22 35 -13 24 -33 -14
-25 -26 6 -28 4 -23 -17 3 -13 9 -28 14 -33 4 -6 4 -17 -1 -25 -8 -12 -10 -10
-10 8 0 25 -17 28 -45 8 -18 -13 -17 -14 8 -31 33 -21 34 -38 5 -57 -22 -14
-22 -16 -5 -41 23 -35 22 -40 -12 -55 -17 -7 -34 -25 -39 -42 -9 -23 -15 -28
-34 -23 -33 7 -86 32 -93 43 -3 6 -13 10 -22 10 -13 0 -12 -5 7 -25 l24 -26
-55 7 c-49 6 -58 4 -85 -19 -16 -14 -45 -29 -64 -34 -24 -7 -36 -16 -40 -33
-3 -14 -15 -29 -26 -35 -11 -6 -28 -18 -38 -28 -10 -9 -23 -17 -31 -17 -17 0
-25 -23 -25 -71 0 -27 -4 -39 -14 -39 -8 0 -22 -10 -31 -22 -15 -21 -14 -24 5
-40 22 -18 26 -48 9 -65 -7 -7 -4 -21 12 -47 19 -33 20 -40 8 -69 -22 -54 -39
-59 -74 -21 -20 21 -29 24 -59 19 -20 -4 -33 -11 -30 -16 3 -5 11 -9 17 -8 28
3 37 -2 37 -25 0 -17 -7 -26 -25 -30 -30 -8 -23 -38 9 -34 18 3 21 -2 19 -32
-1 -19 -2 -36 -2 -38 -1 -1 -10 2 -22 8 -28 15 -52 -5 -44 -37 7 -28 -10 -63
-30 -63 -26 0 -18 -48 11 -63 l26 -14 -29 -18 c-29 -19 -105 -22 -111 -4 -2 5
-8 7 -12 4 -5 -3 -4 -17 2 -31 11 -22 9 -28 -7 -40 -12 -9 -31 -12 -52 -8 -37
7 -41 1 -17 -24 15 -15 15 -17 -5 -33 -24 -20 -28 -49 -6 -49 8 0 15 -6 15
-13 0 -21 -12 -28 -27 -16 -10 9 -13 8 -13 -5 0 -9 -13 -30 -30 -48 -17 -18
-30 -42 -30 -57 -1 -14 -9 -51 -20 -81 -11 -30 -19 -71 -20 -91 0 -40 -11 -49
-61 -49 -19 0 -29 -5 -29 -15 0 -10 10 -15 30 -15 23 0 30 -4 30 -20 0 -15 -7
-20 -29 -20 -27 0 -29 -3 -33 -41 -4 -49 11 -74 40 -67 23 6 51 -18 36 -31 -5
-4 -44 -16 -86 -26 l-78 -19 0 -34 c0 -18 5 -42 11 -54 9 -17 6 -25 -17 -49
-24 -25 -26 -31 -15 -56 12 -30 17 -79 10 -103 -3 -11 10 -16 54 -21 32 -3 60
-9 64 -12 7 -8 -41 -27 -67 -27 -30 0 -50 -11 -50 -29 0 -9 -7 -25 -15 -35 -8
-11 -15 -27 -15 -37 0 -9 -7 -20 -15 -23 -9 -3 -22 -21 -30 -40 -8 -19 -19
-37 -25 -41 -17 -10 -11 -36 15 -71 33 -44 32 -59 -11 -102 l-36 -36 26 -21
c29 -23 33 -47 11 -65 -10 -8 -15 -31 -15 -71 0 -55 2 -59 23 -59 16 0 25 -9
33 -34 13 -41 -6 -86 -36 -86 -18 0 -18 -2 5 -36 32 -47 32 -71 0 -86 -25 -11
-28 -18 -40 -75 -3 -17 -13 -37 -21 -44 -8 -6 -14 -17 -14 -24 0 -17 44 -45
70 -45 11 0 20 -4 20 -10 0 -5 -11 -10 -24 -10 -51 0 -63 -62 -13 -68 33 -4
35 -17 5 -33 -35 -18 -98 -70 -98 -80 0 -4 13 -6 29 -3 33 7 36 2 46 -87 6
-49 10 -57 34 -66 39 -14 47 -51 15 -63 -13 -5 -24 -15 -24 -21 0 -7 -7 -21
-17 -31 -9 -10 -14 -21 -10 -24 3 -3 14 4 24 15 21 25 33 27 33 6 0 -8 -6 -15
-14 -15 -8 0 -18 -9 -21 -20 -4 -11 -15 -20 -27 -20 -11 0 -22 -8 -25 -20 -3
-11 -13 -20 -22 -20 -14 -1 -14 -2 0 -13 8 -7 18 -20 22 -29 3 -10 16 -18 27
-18 26 0 25 -14 -2 -32 -21 -14 -22 -18 -9 -41 8 -15 11 -36 7 -51 -7 -29 -3
-31 43 -15 44 15 59 0 36 -35 -14 -21 -15 -32 -7 -54 22 -55 25 -101 8 -127
-10 -15 -16 -46 -16 -80 0 -48 3 -56 17 -53 13 2 20 17 25 52 8 58 13 64 27
37 13 -24 5 -65 -15 -82 -8 -6 -14 -29 -14 -50 0 -33 -5 -41 -30 -54 -49 -25
-66 -79 -34 -106 14 -11 18 -11 29 4 12 17 85 24 119 11 29 -11 18 -34 -16
-34 -61 0 -78 -10 -78 -42 0 -27 3 -30 25 -24 79 19 73 21 85 -25 8 -29 8 -44
1 -48 -6 -4 -8 -18 -5 -31 11 -51 10 -55 -20 -55 -41 -1 -58 -28 -41 -68 11
-25 18 -31 38 -29 24 3 24 2 22 -66 -2 -56 -8 -77 -29 -108 -43 -64 -35 -80
37 -75 29 2 33 -8 16 -40 -8 -15 -6 -27 11 -53 11 -19 18 -40 15 -48 -5 -12 6
-17 47 -21 29 -4 67 -7 84 -7 47 0 144 -46 144 -68 0 -9 14 -30 31 -45 20 -17
29 -33 25 -43 -3 -9 -9 -28 -12 -42 l-6 -27 26 30 c14 17 25 37 26 46 0 9 7
33 15 52 8 20 15 62 15 93 0 41 5 63 20 81 23 30 26 55 5 47 -20 -8 -30 38
-15 67 12 22 13 22 26 4 7 -10 15 -22 17 -28 2 -6 11 -5 26 2 12 7 24 11 26 9
2 -2 -3 -31 -11 -65 -12 -45 -20 -60 -32 -59 -14 1 -17 -11 -20 -74 -2 -41 -7
-79 -12 -84 -4 -4 -6 -22 -3 -40 2 -17 -2 -50 -10 -73 -18 -52 -7 -75 22 -49
23 21 51 15 51 -10 0 -9 -11 -25 -25 -36 -30 -24 -32 -44 -5 -60 24 -15 25
-31 4 -48 -20 -18 -40 -65 -46 -117 -7 -48 -2 -52 72 -49 39 1 47 5 59 31 8
16 16 24 19 17 2 -6 10 -12 17 -12 17 0 38 36 30 50 -8 13 -42 13 -47 1 -1 -5
-17 3 -35 19 l-31 28 28 12 c16 7 38 9 49 5 13 -4 23 -2 26 7 2 7 6 99 9 205
3 107 9 201 15 212 6 11 11 29 11 41 0 12 15 40 34 63 38 47 95 165 84 175 -5
4 53 32 66 32 36 1 60 66 32 89 -15 12 -86 22 -157 21 -36 0 -37 1 -43 45 -8
53 17 109 45 102 13 -3 18 4 23 31 3 20 4 37 2 39 -6 7 -136 -148 -136 -163 0
-7 -8 -14 -18 -14 -24 0 -72 -57 -72 -86 0 -20 -11 -30 -22 -22 -12 8 -50 -31
-69 -69 -26 -55 -45 -72 -78 -73 -23 0 -23 2 -17 47 3 27 15 57 28 70 17 18
19 25 9 37 -13 15 -7 36 9 36 5 0 29 14 54 31 30 20 46 38 47 52 0 12 3 16 6
10 2 -7 8 -13 12 -13 13 0 61 107 61 134 0 21 5 26 24 26 26 0 56 23 57 43 0
7 4 34 8 62 5 27 5 78 1 112 -10 76 -4 103 21 103 26 0 24 26 -2 33 -20 5 -21
10 -14 54 8 51 9 80 4 102 -7 25 21 23 31 -3 5 -14 14 -26 20 -26 18 0 11 39
-10 57 -14 13 -20 30 -20 63 0 25 -4 50 -8 57 -4 6 -5 33 -4 61 3 41 7 49 21
45 9 -2 26 6 37 19 23 25 45 128 37 171 -9 45 4 77 29 74 31 -3 35 29 9 57
-19 20 -20 25 -7 35 8 7 32 11 53 9 34 -3 38 -1 41 22 6 64 21 95 52 107 23 8
30 18 30 37 0 36 28 34 32 -1 3 -24 8 -28 33 -28 27 0 30 3 28 31 -2 18 3 37
11 43 11 9 12 18 3 40 -5 15 -7 37 -3 47 8 18 9 18 18 -3 9 -18 16 -20 44 -16
32 5 34 3 40 -26 11 -55 21 -24 23 69 1 50 6 102 11 116 6 14 10 40 10 57 0
34 24 70 52 80 13 5 19 0 24 -19 10 -39 28 -23 36 31 4 28 14 52 23 57 20 12
44 71 44 106 -2 64 40 142 76 142 22 0 18 27 -4 33 -31 8 -16 50 16 44 33 -6
49 22 56 98 8 82 25 125 47 125 25 0 28 7 34 68 3 29 10 61 16 71 5 11 10 31
10 45 0 14 4 27 8 30 5 3 8 -17 8 -43 -1 -47 25 -98 44 -86 4 2 10 36 12 75 3
38 10 75 15 82 6 7 13 38 16 68 6 60 14 100 21 108 8 8 36 -19 36 -34 0 -26
18 -14 25 16 4 16 11 32 16 35 5 4 9 14 9 23 0 9 9 28 20 42 l20 25 -4 -30
c-2 -16 -7 -51 -11 -77 -4 -27 -4 -48 1 -48 16 0 66 89 58 102 -10 17 -5 80 8
95 7 9 15 10 30 2 15 -8 25 -6 44 6 31 20 30 25 -6 60 -25 24 -30 37 -30 74 0
27 6 51 16 62 15 17 18 17 40 2 13 -8 24 -24 24 -35 0 -11 5 -18 13 -15 8 3
11 24 9 70 -3 48 0 67 10 74 21 12 48 55 48 75 0 20 -30 24 -47 7 -7 -7 -9 -3
-6 14 3 14 16 36 29 48 13 12 24 30 24 40 0 22 16 33 25 18 10 -16 8 -158 -4
-209 -12 -53 -8 -60 13 -27 11 16 18 54 21 111 5 101 11 126 32 126 13 0 15
-12 11 -72 -2 -42 -11 -88 -21 -107 -10 -20 -17 -57 -17 -91 0 -49 3 -58 20
-63 17 -4 20 -14 20 -66 0 -34 4 -61 9 -61 11 0 24 74 22 118 -2 22 3 34 14
38 12 5 14 14 10 35 -8 33 10 40 31 12 17 -23 18 -43 1 -43 -17 0 -36 -71 -26
-98 6 -15 2 -29 -14 -48 -16 -21 -22 -43 -23 -93 0 -36 -6 -79 -13 -94 -13
-34 -15 -80 -2 -72 5 3 12 19 16 35 8 36 51 90 71 90 21 0 17 -28 -7 -40 -16
-9 -20 -19 -17 -53 3 -37 6 -42 28 -42 17 0 26 -6 28 -20 1 -11 5 -31 9 -45
l6 -25 9 30 c5 17 9 75 9 130 1 115 10 137 46 104 12 -13 23 -18 24 -13 2 29
-3 142 -7 157 -4 14 -9 15 -19 7 -19 -16 -59 6 -51 27 3 8 6 25 6 39 0 18 7
25 33 32 36 9 47 40 23 65 -14 13 -14 16 -1 21 8 3 15 16 15 29 0 13 6 32 14
42 12 17 15 5 21 -98 7 -115 8 -117 31 -117 13 0 24 -4 24 -10 0 -5 -6 -10
-12 -10 -7 0 0 -7 16 -15 30 -16 46 -12 46 10 0 8 4 16 8 19 5 3 9 -61 8 -142
-1 -124 2 -152 17 -177 l18 -30 -6 40 c-18 138 -18 134 -1 141 24 9 28 2 31
-53 3 -40 7 -49 28 -56 23 -7 25 -14 31 -98 7 -96 24 -129 66 -129 28 0 40
-38 43 -132 2 -76 3 -78 30 -88 l29 -10 -32 -31 c-23 -24 -28 -34 -19 -40 7
-4 16 -6 20 -4 6 4 15 -15 60 -130 23 -61 33 -161 16 -182 -15 -21 2 -49 39
-62 25 -9 39 -22 46 -42 14 -41 41 -37 58 8 19 53 21 153 4 178 -20 28 -17 58
7 78 18 16 20 25 13 97 -5 61 -3 85 9 109 11 21 14 48 11 84 -8 88 29 107 42
22 6 -41 9 -45 34 -45 15 0 35 -9 45 -20 20 -22 55 -27 55 -7 0 7 -5 18 -12
25 -6 6 -13 28 -14 49 -2 21 -7 70 -13 108 -5 39 -5 77 0 86 5 9 3 31 -3 52
-21 69 37 122 64 60 7 -16 20 -39 30 -52 12 -15 18 -41 18 -75 0 -28 4 -57 9
-65 9 -14 42 -9 40 6 -4 27 4 33 11 9 10 -32 -11 -78 -25 -56 -5 8 -13 6 -26
-6 -16 -14 -18 -27 -14 -70 2 -29 6 -58 7 -64 3 -12 -61 -39 -80 -32 -7 2 -12
-1 -12 -7 0 -18 -25 -13 -45 9 -24 27 -43 25 -71 -6 -29 -31 -30 -44 -4 -44
11 0 20 -4 20 -10 0 -5 15 -13 33 -18 26 -7 34 -16 46 -50 9 -29 22 -47 41
-57 27 -14 48 -50 37 -61 -3 -3 -14 0 -26 8 -26 16 -46 -1 -36 -31 6 -19 8
-20 30 -5 15 10 25 12 30 5 12 -20 25 -11 25 16 0 14 7 35 17 45 14 15 14 22
4 42 -11 19 -11 31 -1 61 7 20 17 34 24 32 46 -17 51 -16 80 23 32 43 55 44
32 2 -7 -15 -19 -39 -26 -53 -6 -14 -27 -32 -46 -39 -31 -13 -48 -40 -24 -40
6 0 10 5 10 11 0 5 5 7 11 3 8 -4 7 -9 -2 -15 -11 -6 -9 -13 9 -29 17 -16 22
-33 23 -73 1 -29 2 -61 3 -72 1 -11 13 -25 29 -33 16 -8 27 -21 27 -33 0 -11
7 -19 16 -19 11 0 14 -6 9 -21 -4 -11 -2 -33 3 -47 6 -15 13 -36 17 -47 5 -11
8 -29 9 -40 1 -20 18 -25 87 -25 15 0 32 -7 39 -15 7 -8 25 -15 40 -15 23 0
29 -5 34 -31 3 -17 6 -42 6 -54 0 -13 5 -25 10 -27 6 -2 12 -22 14 -45 3 -23
9 -50 15 -61 11 -20 -5 -59 -37 -95 -13 -15 -14 -21 -3 -39 8 -14 9 -24 2 -31
-10 -10 -42 -3 -40 10 4 16 -13 43 -26 43 -9 0 -15 -15 -17 -42 -3 -37 -6 -42
-23 -40 -74 13 -114 -7 -142 -70 -7 -16 -17 -28 -22 -28 -23 0 -41 14 -41 31
0 14 -7 19 -27 19 -15 0 -37 10 -50 22 -13 12 -23 17 -23 10 0 -6 -7 -18 -16
-27 -13 -12 -19 -13 -30 -4 -8 7 -50 14 -94 16 -72 3 -79 2 -85 -17 -6 -17 -9
-19 -22 -9 -12 10 -16 10 -24 -2 -4 -8 -6 -22 -3 -32 5 -16 1 -18 -27 -15 -17
2 -35 10 -39 18 -24 51 -28 55 -56 51 -16 -2 -40 -4 -54 -5 -23 -1 -26 -6 -32
-65 -10 -86 -13 -93 -45 -89 -31 3 -198 -11 -225 -18 -24 -7 -23 -20 2 -27 13
-3 20 -14 20 -30 0 -34 -23 -50 -60 -42 -21 5 -43 0 -75 -15 -25 -12 -45 -24
-45 -26 0 -3 7 -16 16 -29 15 -23 14 -24 -15 -39 -16 -9 -40 -16 -53 -16 -13
0 -32 -7 -42 -15 -11 -9 -29 -12 -43 -9 -19 5 -30 -1 -56 -31 -30 -35 -34 -37
-49 -21 -20 19 -48 11 -48 -15 0 -10 -9 -23 -19 -29 -13 -6 -202 -12 -513 -16
-281 -4 -498 -11 -505 -16 -6 -5 -10 -15 -7 -22 3 -8 -11 -19 -34 -28 l-39
-15 -7 -99 c-7 -96 -26 -152 -46 -139 -15 9 -49 -32 -44 -52 3 -11 -3 -26 -15
-37 -12 -11 -21 -23 -21 -28 0 -13 27 -9 40 6 6 8 21 16 33 18 13 2 23 13 27
28 5 22 12 25 53 28 41 3 48 1 45 -14 -2 -13 11 -23 49 -39 29 -11 58 -26 64
-32 18 -18 23 -186 10 -365 -10 -141 -15 -165 -31 -180 -11 -9 -20 -26 -20
-38 0 -14 -4 -19 -12 -14 -8 5 -9 2 -5 -9 4 -10 2 -28 -3 -42 -14 -38 -1 -116
19 -113 25 4 41 -11 41 -38 0 -14 -4 -22 -10 -19 -17 10 -11 -4 10 -25 11 -11
22 -32 25 -47 3 -16 12 -57 20 -93 8 -36 20 -91 27 -122 10 -46 16 -57 29 -53
12 4 20 -6 33 -38 9 -23 16 -52 16 -63 0 -22 42 -68 53 -58 11 11 38 -18 32
-33 -6 -18 47 -73 72 -73 10 0 43 -16 73 -35 71 -46 189 -85 255 -85 13 0 43
-17 70 -40 25 -22 52 -40 59 -40 20 0 56 -44 56 -68 0 -12 5 -22 11 -22 6 0 8
7 5 16 -4 11 -1 14 12 12 9 -2 16 -8 15 -13 -1 -6 13 -26 33 -46 19 -19 31
-38 28 -42 -4 -4 -2 -7 4 -7 7 0 12 -9 12 -21 0 -13 10 -23 29 -30 16 -6 31
-19 34 -30 4 -16 14 -19 71 -19 59 0 67 -3 82 -25 9 -14 24 -25 34 -25 13 0
23 -15 35 -52 9 -29 23 -67 31 -85 20 -45 17 -70 -11 -101 -18 -18 -25 -35
-22 -51 3 -14 -2 -31 -10 -39 -8 -8 -12 -21 -9 -28 8 -20 -14 -17 -30 4 -12
16 -13 16 -14 0 0 -19 -33 -56 -72 -81 -30 -19 -36 -15 -36 26 0 21 5 27 22
27 28 0 52 36 30 44 -26 10 -42 7 -60 -11 -10 -10 -28 -16 -42 -14 -23 3 -24
1 -18 -34 5 -26 4 -35 -4 -30 -6 4 -22 -1 -36 -9 -22 -15 -25 -15 -30 -1 -8
19 -33 20 -40 0 -4 -8 -14 -15 -24 -15 -9 0 -25 -9 -35 -20 -17 -19 -16 -20
20 -55 38 -35 38 -35 12 -35 -19 0 -25 -4 -21 -15 4 -8 -1 -17 -10 -21 -10 -4
-16 -18 -16 -39 0 -26 -5 -34 -20 -37 -28 -4 -27 -22 2 -29 20 -4 23 -11 22
-49 -1 -24 -6 -46 -12 -48 -7 -2 -9 -15 -5 -33 4 -20 2 -29 -7 -29 -8 0 -21
-7 -31 -16 -13 -12 -26 -14 -46 -9 l-28 8 33 13 c17 8 32 21 32 29 0 8 6 15
13 15 6 0 4 5 -5 11 -17 9 -17 12 -3 39 19 36 14 38 -20 6 -16 -15 -23 -30
-19 -40 4 -12 0 -16 -15 -16 -17 0 -21 -6 -21 -31 0 -19 -4 -28 -11 -24 -6 4
-26 4 -46 0 -34 -6 -35 -8 -30 -42 7 -41 15 -52 25 -36 4 6 22 15 41 20 31 8
33 10 17 25 -21 22 -20 28 5 23 30 -6 31 -7 12 -53 -13 -35 -21 -42 -43 -42
-23 0 -27 -4 -27 -30 0 -17 6 -30 13 -30 16 0 23 -21 17 -53 -4 -21 -9 -25
-18 -17 -7 6 -20 7 -29 4 -16 -6 -16 -8 0 -25 9 -10 22 -15 30 -12 10 4 14 -3
14 -26 0 -32 -14 -42 -23 -17 -3 7 -14 15 -25 18 -15 4 -18 1 -14 -18 2 -14 0
-24 -7 -24 -6 0 -11 -7 -11 -16 0 -8 5 -12 10 -9 6 3 10 2 10 -4 0 -5 -5 -11
-11 -13 -7 -2 -7 -12 1 -32 6 -16 9 -35 6 -43 -6 -15 -36 -18 -36 -3 0 18 -18
10 -23 -10 -3 -11 -9 -20 -14 -19 -20 3 -25 -2 -13 -16 9 -11 16 -12 25 -5 9
8 12 5 11 -10 0 -11 -5 -21 -11 -22 -27 -5 -71 -168 -45 -168 4 0 8 -6 7 -12
-1 -34 5 -46 25 -51 17 -5 19 -9 10 -20 -16 -18 -3 -30 16 -15 12 10 19 7 38
-15 14 -16 33 -27 49 -27 14 0 25 -4 25 -9 0 -5 9 -13 20 -16 25 -8 25 -16 0
-43 -12 -12 -16 -22 -10 -22 6 0 17 -6 23 -12 9 -10 6 -19 -15 -39 -15 -15
-29 -24 -32 -21 -4 3 -6 1 -6 -5 0 -6 7 -14 16 -17 8 -3 12 -10 9 -16 -3 -5 1
-10 9 -10 10 0 16 -9 16 -25 0 -15 -6 -25 -14 -25 -16 0 -16 -14 0 -45 6 -11
10 -38 10 -60 -1 -33 -5 -40 -26 -45 -14 -3 -25 -12 -25 -20 0 -8 -4 -21 -8
-27 -4 -7 -3 -21 3 -32 5 -11 10 -33 10 -50 0 -17 5 -31 10 -31 6 0 10 5 10
11 0 5 5 7 10 4 17 -11 11 -37 -10 -42 -27 -7 -25 -27 4 -51 18 -13 23 -25 19
-41 -3 -11 -10 -21 -15 -21 -5 0 -6 -5 -3 -10 4 -6 10 -8 14 -6 4 3 7 -29 8
-70 1 -42 7 -82 13 -90 7 -7 10 -20 7 -28 -3 -8 0 -22 7 -32 7 -9 11 -26 8
-36 -3 -12 1 -18 12 -18 9 0 16 -7 16 -16 0 -13 3 -14 13 -5 18 15 25 6 19
-24 -3 -16 -13 -27 -29 -31 -17 -5 -21 -9 -12 -14 6 -5 9 -15 6 -23 -3 -8 -2
-18 3 -23 5 -5 2 -42 -6 -84 -8 -41 -16 -84 -18 -96 -4 -25 -40 -64 -61 -64
-17 0 -39 -46 -31 -67 3 -7 13 -13 21 -13 9 0 13 -5 10 -11 -4 -6 -14 -8 -23
-4 -19 7 -142 -26 -142 -37 0 -5 8 -8 18 -8 25 -1 57 -23 60 -42 2 -10 -2 -18
-8 -18 -5 0 -10 4 -10 9 0 5 -9 11 -20 14 -11 3 -20 2 -20 -3 0 -16 30 -32 50
-27 11 3 23 1 26 -4 3 -5 0 -9 -5 -9 -6 0 -11 -14 -11 -30 0 -33 -27 -83 -40
-75 -13 8 -20 -9 -22 -54 -1 -25 -6 -41 -14 -41 -12 0 -24 -22 -24 -46 0 -8 9
-23 21 -35 16 -16 23 -18 35 -8 8 7 14 7 14 1 0 -10 -22 -22 -47 -28 -7 -1
-13 2 -13 7 0 5 -8 9 -18 9 -10 0 -23 5 -30 12 -16 16 -20 10 -24 -36 -2 -25
2 -41 10 -43 6 -3 12 3 12 13 0 16 2 15 20 -4 24 -25 26 -42 5 -42 -8 0 -15
-6 -15 -12 0 -7 -5 -5 -11 5 -5 9 -17 17 -24 17 -8 0 -15 6 -15 14 0 15 -73
29 -107 20 -17 -5 -21 -12 -18 -35 2 -15 0 -31 -6 -34 -15 -10 -11 -28 5 -22
16 6 26 -13 26 -50 0 -17 4 -23 14 -20 8 3 13 -1 12 -11 -1 -12 8 -18 32 -20
18 -2 32 -9 32 -17 0 -10 9 -11 37 -4 39 8 71 -5 41 -16 -22 -9 -12 -39 23
-64 16 -12 29 -28 29 -35 0 -17 30 -43 55 -48 12 -2 21 -13 23 -27 2 -14 10
-34 18 -45 7 -12 16 -41 19 -64 3 -24 10 -52 15 -63 11 -20 35 -25 45 -9 3 6
1 10 -4 10 -6 0 -10 3 -10 8 4 21 -3 32 -18 33 -13 0 -12 3 6 10 30 12 47 -2
53 -42 3 -20 0 -33 -9 -36 -7 -3 -13 -11 -13 -18 0 -18 53 -60 58 -46 2 6 10
11 17 11 9 0 13 -11 12 -35 -2 -37 -13 -46 -20 -17 -4 14 -5 14 -6 1 -1 -22
30 -49 36 -31 8 21 32 14 26 -8 -3 -11 -1 -20 3 -21 33 -3 70 -11 79 -18 5 -4
16 -6 23 -5 6 1 17 2 22 3 6 0 10 7 10 15 0 21 29 28 46 12 17 -17 18 -38 3
-53 -7 -7 0 -15 25 -27 19 -9 38 -21 41 -27 4 -5 14 -8 23 -5 28 8 55 -19 48
-48 -5 -19 -1 -28 13 -36 11 -5 23 -24 27 -42 6 -32 7 -32 15 -9 8 19 12 21
24 11 8 -7 15 -21 15 -31 0 -11 4 -19 9 -19 5 0 18 -18 28 -41 16 -37 18 -39
23 -18 8 31 26 35 40 8 9 -17 9 -23 0 -29 -7 -5 -9 -16 -5 -29 4 -13 1 -28 -5
-36 -10 -12 -9 -15 8 -15 25 0 41 -25 35 -51 -4 -13 0 -19 11 -19 9 0 16 5 16
11 0 12 25 39 35 39 4 0 5 -11 3 -25 -4 -17 -1 -25 8 -25 8 0 14 -7 14 -15 0
-8 17 -22 38 -31 31 -13 35 -18 21 -26 -15 -10 -15 -13 0 -30 8 -10 22 -18 31
-18 19 0 53 -38 45 -51 -4 -5 0 -23 9 -40 16 -32 12 -57 -13 -75 -17 -13 -8
-44 14 -44 12 0 13 4 6 19 -8 14 -5 23 14 40 14 11 27 21 30 21 9 0 45 -34 45
-43 0 -15 51 -59 78 -66 15 -4 28 -14 28 -22 1 -8 2 -22 3 -31 1 -19 31 -26
31 -7 0 24 35 2 40 -26 4 -21 15 -34 41 -48 20 -11 36 -24 36 -31 -1 -38 4
-46 29 -46 14 0 32 -6 40 -14 18 -18 18 -26 1 -26 -19 0 -54 -43 -49 -60 3 -8
13 -20 22 -27 13 -10 16 -23 12 -61 -2 -30 1 -58 9 -73 17 -31 20 -49 8 -49
-15 0 -10 -27 6 -34 8 -3 15 -1 15 4 0 5 8 7 18 4 14 -5 15 -4 2 5 -11 8 -12
15 -5 27 16 26 29 13 31 -30 1 -28 8 -45 25 -59 21 -17 23 -27 24 -115 2 -127
7 -143 46 -135 22 4 29 2 29 -10 0 -22 51 -76 66 -70 8 3 14 13 14 23 0 10 7
23 15 30 21 17 31 -13 16 -46 -16 -36 -14 -47 10 -41 15 4 19 2 15 -9 -4 -9 2
-15 17 -16 33 -2 40 -1 61 8 14 5 17 4 12 -5 -5 -8 -1 -14 13 -18 27 -7 27
-33 1 -40 -27 -7 -25 -21 5 -29 22 -5 24 -10 20 -43 -7 -45 13 -85 43 -89 17
-3 25 2 29 17 7 26 7 26 37 -4 27 -27 66 -34 66 -11 0 8 -4 18 -10 21 -5 3
-10 14 -10 25 0 13 5 17 20 13 14 -4 20 -14 20 -34 0 -33 18 -44 55 -35 27 7
34 33 10 42 -19 8 -19 24 0 24 8 0 15 -4 15 -8 0 -10 87 -42 113 -42 17 0 24
-25 8 -34 -4 -3 -6 -17 -3 -31 3 -19 0 -25 -13 -25 -25 0 -45 -30 -33 -50 7
-11 21 -14 49 -12 54 6 49 -13 -7 -27 l-46 -12 17 -25 c9 -14 14 -32 11 -40
-4 -9 3 -18 17 -24 21 -8 21 -9 -5 -9 -16 -1 -28 -7 -28 -13 0 -7 -11 -26 -25
-42 -14 -16 -25 -35 -25 -43 0 -8 -14 -20 -30 -27 l-31 -12 22 -19 c17 -16 20
-27 14 -62 -4 -26 -2 -43 4 -43 5 0 11 6 14 13 3 8 9 7 19 -6 15 -20 12 -87
-3 -87 -5 0 -9 -9 -9 -20 0 -13 -10 -24 -27 -31 -32 -12 -43 -26 -43 -56 0
-16 -6 -23 -19 -23 -11 0 -26 -6 -33 -13 -7 -8 -20 -16 -28 -20 -11 -4 -9 -7
8 -12 32 -10 30 -45 -3 -45 -16 0 -25 -6 -25 -15 0 -8 -9 -15 -20 -15 -15 0
-20 -7 -20 -25 0 -19 5 -25 22 -25 12 0 18 -3 14 -7 -4 -4 -19 -7 -34 -8 -24
0 -27 -4 -30 -42 -2 -33 1 -42 15 -46 15 -4 15 -5 -3 -6 -11 0 -25 4 -32 11
-9 9 -12 3 -12 -27 0 -24 4 -35 8 -27 6 9 12 8 25 -5 65 -71 71 -83 38 -83
-11 0 -22 -4 -25 -9 -3 -5 -27 -12 -53 -16 -27 -4 -52 -10 -58 -15 -5 -4 -30
-10 -55 -14 -25 -3 -51 -7 -57 -8 -15 -2 -18 -18 -3 -18 6 0 1 -9 -10 -20 -24
-24 -45 -26 -36 -5 6 17 -29 21 -54 5 -13 -8 -12 -11 5 -25 20 -16 20 -16 -1
-6 -14 7 -24 7 -32 -1 -6 -6 -39 -12 -74 -14 -120 -5 -168 -14 -168 -31 0 -11
-5 -9 -18 7 -16 20 -21 21 -41 11 -13 -7 -20 -18 -17 -27 10 -27 -33 -36 -138
-30 -132 7 -128 7 -134 28 -5 19 -18 24 -87 32 -294 34 -357 46 -351 63 7 16
-48 43 -87 43 -33 0 -123 45 -141 72 -9 12 -16 30 -16 39 0 9 -7 22 -15 29 -8
7 -15 20 -15 29 -1 19 -34 61 -49 61 -15 0 -27 30 -30 75 -2 42 -15 65 -37 65
-8 0 -16 11 -20 24 -3 13 -16 28 -30 35 -25 11 -27 19 -24 82 1 30 -3 38 -22
44 -13 4 -27 7 -32 6 -15 -3 -35 20 -41 50 -7 33 -20 36 -46 13 -9 -8 -26 -17
-36 -18 -10 -2 -20 -11 -21 -21 -3 -15 1 -17 22 -11 19 5 28 2 32 -9 9 -22 -2
-30 -20 -16 -11 10 -18 6 -37 -21 -14 -19 -22 -43 -21 -59 2 -15 -2 -30 -8
-34 -6 -4 -9 -18 -5 -34 7 -33 -15 -56 -54 -56 -16 0 -26 -6 -27 -15 -1 -39
-16 -60 -42 -60 -46 0 -72 11 -72 31 0 13 -12 21 -42 29 -24 7 -65 18 -92 26
-26 8 -54 14 -61 14 -7 0 -15 13 -18 29 -5 25 -15 33 -64 51 -47 17 -62 28
-78 57 -13 24 -31 40 -52 47 -36 12 -56 36 -67 81 -10 38 -24 55 -41 48 -24
-9 -29 42 -29 347 -1 326 5 390 34 390 13 0 24 16 40 58 24 65 51 98 86 106
14 4 24 14 24 24 0 10 9 35 20 57 15 30 20 59 20 127 0 48 -3 89 -7 91 -5 2
-42 0 -83 -5 -41 -5 -84 -11 -95 -12 -68 -7 -143 -33 -167 -57 -15 -15 -40
-30 -55 -34 -38 -9 -53 -23 -53 -49 0 -26 -18 -46 -40 -46 -22 0 -50 -31 -50
-55 0 -10 -6 -26 -14 -34 -8 -9 -23 -40 -33 -70 -19 -57 -34 -67 -44 -29 -5
21 -6 20 -13 -9 -4 -18 -12 -35 -17 -38 -5 -4 -9 -19 -9 -34 0 -16 -10 -40
-21 -55 -17 -22 -27 -26 -47 -21 -14 3 -38 1 -53 -5 -19 -8 -33 -9 -45 -2 -12
7 -25 6 -41 -1 -26 -12 -30 -27 -7 -27 31 0 7 -24 -42 -40 -27 -10 -65 -27
-84 -39 -42 -25 -66 -27 -78 -5 -10 18 -43 16 -50 -3 -2 -7 4 -13 12 -13 15 0
15 -2 0 -25 -9 -13 -26 -27 -37 -31 -12 -4 -28 -15 -35 -25 -18 -26 -32 -24
-32 6 0 22 -3 24 -32 19 -78 -13 -79 -13 -73 -37 4 -13 1 -36 -6 -52 -9 -22
-13 -25 -16 -14 -5 19 -40 32 -49 18 -9 -15 -27 -10 -21 6 9 22 -8 27 -58 14
-30 -8 -52 -21 -65 -39 -14 -20 -26 -27 -40 -23 -11 3 -36 -4 -55 -16 -20 -11
-43 -21 -50 -21 -18 0 -82 -56 -74 -64 7 -7 115 47 141 70 10 10 21 14 25 10
4 -3 -4 -14 -18 -23 -13 -10 -36 -30 -51 -45 -14 -15 -33 -28 -41 -28 -21 0
-35 -20 -39 -60 l-4 -35 -13 30 c-25 60 -64 82 -90 51 -7 -8 -26 -18 -44 -22
-29 -6 -30 -7 -11 -21 16 -12 17 -15 4 -23 -8 -5 -22 -10 -31 -10 -9 0 -32
-17 -52 -39 -19 -21 -41 -41 -48 -44 -11 -4 -11 -6 1 -7 23 -2 -71 -30 -103
-30 -16 0 -38 -5 -49 -11 -12 -6 -59 -16 -106 -23 -51 -6 -87 -16 -90 -23 -2
-7 5 -13 15 -14 10 -1 5 -5 -12 -9 -16 -5 -49 -15 -72 -21 -37 -11 -44 -11
-61 4 -16 15 -21 15 -31 3 -6 -7 -37 -16 -68 -18 -33 -3 -61 -11 -67 -20 -17
-22 -46 -30 -46 -13 0 8 -4 15 -9 15 -25 0 -41 -15 -41 -37 0 -14 -13 -37 -29
-54 -27 -26 -31 -28 -39 -12 -9 16 -11 16 -36 0 -14 -9 -34 -17 -44 -17 -20 0
-52 -29 -52 -48 0 -7 -4 -12 -10 -12 -5 0 -10 -7 -10 -15 0 -20 -12 -19 -43 5
-30 24 -37 25 -37 6 0 -8 -22 -18 -60 -25 -51 -10 -63 -10 -75 3 -14 13 -13
16 5 26 25 13 27 43 3 38 -10 -2 -18 -10 -18 -18 -1 -25 -15 -40 -39 -40 -12
0 -26 -3 -30 -7 -4 -4 -25 -6 -46 -4 -47 3 -66 -5 -51 -23 8 -9 7 -18 -2 -31
-11 -14 -18 -15 -34 -7 -29 16 -66 4 -60 -19 5 -17 0 -18 -46 -14 -60 7 -88
-5 -68 -29 9 -11 10 -20 1 -35 -16 -32 -33 -26 -27 9 4 16 3 31 -1 33 -4 3
-29 -2 -57 -10 -27 -8 -68 -19 -90 -25 -22 -6 -56 -18 -75 -28 -19 -9 -62 -22
-95 -29 -102 -21 -145 -33 -151 -42 -3 -5 -20 -9 -39 -9 -24 0 -39 -7 -52 -25
-10 -14 -32 -27 -52 -30 -19 -3 -42 -10 -52 -15 -10 -6 -30 -10 -45 -10 -15 0
-43 -4 -63 -10 -20 -5 -53 -12 -74 -15 -28 -4 -37 -10 -35 -22 4 -24 -35 -41
-111 -49 -37 -3 -97 -14 -136 -24 -59 -15 -70 -21 -67 -38 2 -16 -5 -21 -45
-26 -85 -12 -257 -46 -281 -56 -17 -7 -22 -15 -17 -29 6 -20 -14 -32 -60 -36
-11 -2 -33 -7 -50 -13 -16 -6 -42 -14 -57 -17 -18 -3 -33 -17 -44 -38 -20 -40
-52 -66 -80 -67 -12 0 -35 -7 -50 -15 -16 -8 -37 -15 -46 -15 -20 0 -24 -15
-7 -26 13 -7 -25 -33 -50 -34 -8 0 -33 -10 -57 -22 -33 -16 -44 -27 -44 -44 0
-25 -26 -44 -59 -44 -10 0 -32 -7 -48 -15 -15 -8 -40 -17 -54 -19 -16 -4 -32
-19 -45 -43 -17 -32 -26 -38 -56 -41 -25 -2 -46 -13 -67 -34 -25 -25 -33 -29
-45 -19 -12 10 -20 6 -46 -22 -20 -23 -45 -38 -68 -42 -20 -4 -46 -12 -57 -18
-11 -6 -23 -10 -27 -9 -4 1 -20 -3 -35 -9 -20 -7 -24 -12 -14 -18 23 -15 -29
-41 -80 -41 -40 0 -51 -4 -73 -31 -14 -17 -30 -28 -36 -24 -5 3 -23 -4 -39
-16 -25 -18 -33 -20 -45 -10 -8 7 -12 19 -9 27 3 9 -2 14 -15 14 -24 0 -37
-16 -22 -25 6 -4 -11 -18 -36 -31 -26 -14 -49 -22 -52 -20 -10 10 -62 -36 -62
-55 0 -28 -44 -69 -74 -69 -31 0 -44 -19 -22 -32 19 -11 12 -28 -10 -28 -9 0
-36 -16 -60 -36 -31 -26 -44 -44 -44 -63 -1 -14 -9 -55 -19 -91 -13 -49 -24
-68 -43 -77 -13 -7 -37 -35 -52 -62 -19 -37 -33 -51 -52 -53 -21 -2 -29 -13
-45 -58 -11 -30 -24 -73 -28 -95 -4 -22 -18 -60 -30 -83 -12 -24 -20 -51 -17
-59 5 -12 1 -14 -14 -10 -16 4 -24 -2 -35 -30 -8 -20 -15 -43 -15 -52 0 -10
-13 -30 -30 -46 -16 -16 -30 -34 -30 -40 0 -7 -11 -29 -25 -49 -14 -20 -25
-48 -25 -62 0 -38 -18 -64 -44 -64 -24 0 -36 -17 -36 -50 0 -21 -47 -127 -61
-135 -5 -4 -9 -1 -9 4 0 20 -19 11 -26 -11 -3 -13 -12 -29 -18 -37 -6 -8 -15
-32 -21 -55 -8 -33 -14 -40 -31 -38 -22 3 -44 -31 -44 -71 0 -12 -7 -31 -15
-41 -8 -11 -15 -35 -15 -53 0 -23 -9 -41 -33 -65 -33 -34 -60 -94 -72 -160 -3
-21 -18 -52 -33 -70 -36 -42 -61 -114 -95 -268 -10 -48 -15 -55 -34 -52 -18 3
-23 -3 -28 -35 -11 -70 -26 -148 -36 -179 -5 -17 -9 -44 -9 -61 0 -47 -9 -66
-26 -52 -23 19 -32 -16 -84 -326 -7 -38 -24 -101 -40 -140 -25 -62 -30 -92
-40 -255 -8 -108 -10 -259 -7 -365 5 -159 4 -189 -13 -254 -11 -41 -28 -84
-38 -95 -26 -29 -70 -197 -76 -292 -5 -61 -22 -107 -38 -102 -7 3 -18 -1 -24
-7 -17 -16 -51 -167 -59 -257 -7 -75 -25 -110 -25 -48 0 17 -4 30 -10 30 -5 0
-10 -8 -10 -17 -1 -88 -26 -249 -61 -388 -6 -22 -13 -51 -16 -65 -4 -14 -14
-36 -25 -50 -42 -57 -66 -437 -43 -680 9 -94 12 -106 32 -115 17 -7 23 -17 21
-40 -1 -16 -7 -37 -14 -45 -20 -24 -29 -90 -13 -90 11 0 11 -2 1 -8 -9 -7 -15
-87 -22 -323 -5 -173 -12 -331 -15 -351 -18 -126 -22 -530 -10 -955 8 -274 2
-412 -16 -365 -6 16 -15 22 -26 19 -10 -3 -43 -10 -73 -17 -30 -6 -71 -15 -90
-20 -19 -5 -47 -11 -62 -15 -18 -3 -28 -12 -30 -27 -2 -18 -18 -28 -73 -48
-47 -17 -73 -32 -80 -47 -5 -12 -28 -29 -51 -38 -23 -9 -50 -25 -59 -35 -10
-11 -26 -20 -35 -20 -26 0 -53 -100 -58 -215 -4 -105 28 -369 48 -389 7 -7 10
-5 10 5 1 29 38 -31 45 -74 4 -23 14 -54 21 -69 8 -15 14 -37 14 -49 0 -13 11
-34 24 -48 14 -16 26 -43 29 -69 5 -39 4 -42 -19 -42 -15 0 -27 -7 -30 -18 -4
-9 -18 -40 -31 -69 -20 -40 -32 -53 -52 -55 -20 -2 -27 -10 -32 -35 -3 -18
-12 -40 -19 -48 -7 -9 -16 -32 -19 -53 -5 -28 -12 -37 -31 -42 -21 -5 -28 -17
-44 -70 -10 -36 -22 -90 -26 -122 -4 -31 -11 -61 -14 -67 -5 -8 2823 -11
10360 -11 l10366 0 -7 129 c-7 125 -6 130 14 140 12 7 21 20 21 30 0 22 83 45
145 39 34 -3 40 -7 43 -28 2 -14 7 -34 13 -45 16 -33 -37 -129 -73 -133 -21
-3 -29 -10 -33 -30 -3 -15 -10 -41 -15 -58 -6 -17 -10 -33 -10 -37 0 -4 1136
-7 2525 -7 l2525 0 0 39 c0 22 -7 71 -15 110 -10 50 -12 78 -5 96 19 50 22
186 6 265 -12 60 -20 79 -43 97 -16 14 -22 23 -14 23 10 0 7 9 -11 27 -33 36
-48 66 -48 97 0 14 -4 28 -10 31 -15 9 -6 77 14 107 10 15 32 32 50 38 34 11
45 28 87 145 14 40 22 51 43 53 23 3 26 8 26 40 0 20 4 53 9 72 29 117 33 174
17 251 -21 102 -24 107 -54 111 -20 2 -28 9 -30 28 -2 13 -17 39 -33 58 -16
18 -29 41 -29 51 0 12 -11 21 -32 27 -35 10 -67 58 -68 101 0 13 -13 29 -35
42 -19 11 -35 28 -35 36 0 9 -12 37 -26 61 -24 41 -26 52 -21 116 8 96 1 128
-29 128 -21 0 -24 5 -24 36 0 26 4 35 13 31 24 -9 38 8 55 69 23 83 21 307 -5
429 -18 83 -21 90 -43 90 -21 0 -26 6 -31 37 -3 20 -12 44 -19 53 -8 9 -16 35
-20 58 -4 36 -9 42 -29 41 -23 -1 -33 16 -70 109 -7 19 -18 27 -35 27 -19 0
-27 8 -37 38 -6 20 -26 66 -43 102 -23 48 -36 65 -51 65 -19 0 -20 5 -16 155
2 85 10 187 18 225 8 39 19 102 24 140 5 39 14 92 20 119 7 30 12 204 12 470
1 386 -1 426 -18 486 -11 36 -19 90 -18 120 1 30 -3 57 -8 61 -13 8 -34 97
-48 204 -15 115 -26 150 -62 202 -16 23 -29 50 -29 61 0 12 -5 33 -11 49 -11
29 -21 84 -39 207 -11 77 -29 111 -41 79 -5 -14 -8 -15 -11 -3 -3 8 -11 31
-17 50 -15 43 -41 175 -41 213 0 31 -8 34 -25 10 -11 -14 -15 -7 -29 53 -9 38
-24 98 -33 134 -8 36 -18 82 -20 104 -4 27 -11 40 -24 43 -21 6 -21 6 -25 43
-1 14 -10 45 -18 70 -8 25 -27 83 -42 130 -15 47 -34 94 -44 105 -9 11 -20 36
-24 55 -21 108 -36 207 -47 305 -11 111 -27 178 -28 123 -1 -24 -20 -52 -22
-31 -7 86 -21 199 -33 278 -8 55 -16 120 -16 145 0 64 -9 88 -33 92 -23 3 -33
41 -62 233 -14 97 -32 171 -46 195 -5 8 -16 31 -25 50 -8 19 -19 44 -24 55 -5
11 -11 36 -14 56 -4 21 -18 47 -36 64 -16 16 -35 44 -41 64 -7 20 -20 48 -30
63 -11 14 -19 37 -19 50 0 31 -28 71 -46 64 -16 -6 -24 5 -35 48 -29 112 -62
172 -71 129 -3 -12 -11 -3 -26 31 -12 27 -22 56 -22 65 0 9 -11 34 -25 56 -13
22 -25 46 -25 53 0 8 -13 27 -30 42 -16 15 -30 37 -30 49 0 31 -20 68 -45 81
-24 13 -73 109 -90 175 -8 32 -15 40 -33 40 -26 0 -42 20 -42 51 0 12 -7 35
-15 50 -8 16 -15 40 -15 54 0 34 -15 54 -34 47 -12 -5 -22 5 -38 41 -52 116
-79 164 -107 193 -19 19 -31 41 -31 57 0 21 -10 33 -40 52 -23 13 -40 32 -40
42 0 30 -32 80 -92 143 -32 33 -58 69 -58 80 -1 43 -12 66 -30 60 -19 -6 -50
32 -50 60 0 25 -31 65 -50 65 -33 0 -50 12 -50 34 0 28 -34 60 -80 75 -23 7
-39 21 -48 39 -7 18 -31 38 -59 53 -26 13 -54 37 -63 54 -10 18 -26 31 -41 33
-13 2 -38 15 -56 28 -17 13 -39 24 -48 24 -27 0 -57 21 -51 35 6 17 -11 32
-49 40 -17 4 -46 13 -65 21 -19 7 -48 18 -64 24 -22 8 -26 13 -17 24 9 11 3
18 -32 35 -24 12 -52 21 -63 21 -10 1 -30 7 -44 15 -14 8 -37 14 -52 15 -19 0
-35 10 -53 34 -18 23 -37 36 -63 41 -20 4 -49 13 -64 21 -15 8 -36 14 -48 14
-11 0 -33 12 -48 27 -17 18 -47 33 -82 41 -30 7 -71 17 -90 22 -19 5 -57 14
-85 20 -63 15 -81 30 -35 30 19 0 30 4 24 8 -9 9 -67 22 -189 42 -38 7 -80 16
-93 21 -13 5 -33 9 -45 9 -12 0 -29 5 -37 11 -11 7 -7 9 19 7 19 -2 36 2 38 8
4 12 -49 24 -108 24 -35 0 -72 9 -198 48 -30 9 -72 31 -94 49 -21 18 -50 33
-64 33 -13 0 -33 4 -43 10 -10 5 -36 12 -57 15 -27 3 -46 14 -68 39 -24 28
-44 38 -99 52 -98 23 -136 41 -136 62 0 15 -15 20 -77 31 -43 7 -96 22 -119
32 -22 11 -49 19 -60 19 -25 0 -39 11 -39 30 0 9 -15 18 -40 23 -22 5 -59 17
-83 28 -23 10 -53 19 -65 19 -13 0 -36 13 -51 29 -15 16 -40 31 -54 34 -15 3
-49 13 -77 22 -27 9 -72 23 -100 32 -27 8 -66 25 -85 36 -38 22 -58 27 -225
57 -149 26 -158 29 -144 46 13 16 12 17 -86 33 -38 7 -86 16 -105 21 -73 18
-143 30 -176 30 -27 0 -34 4 -34 19 0 22 -3 23 -205 40 -203 18 -298 30 -340
45 -22 8 -74 17 -115 20 -61 4 -78 9 -89 26 -11 16 -24 20 -64 20 -69 0 -134
25 -182 72 -23 21 -49 38 -58 38 -10 0 -35 9 -57 20 -22 11 -47 20 -57 20 -42
0 -123 25 -119 37 3 7 2 15 -3 17 -4 3 -82 20 -172 38 -90 17 -166 33 -168 35
-2 1 2 9 8 17 14 17 25 14 -164 42 -60 9 -150 22 -198 29 -71 11 -94 18 -116
39 -15 14 -34 26 -43 26 -22 0 -78 66 -78 91 0 14 -6 19 -17 18 -10 -2 -37 9
-61 24 -24 15 -54 32 -67 37 -15 6 -25 17 -25 29 0 24 -9 30 -80 56 -42 15
-56 26 -60 45 -5 19 -14 26 -43 31 -20 3 -52 13 -70 22 -17 9 -49 19 -70 22
-32 5 -37 9 -32 25 9 28 -44 35 -189 24 -67 -5 -170 -8 -231 -7 -135 3 -139 6
-149 123 -4 45 -14 99 -23 119 -33 75 -50 204 -63 471 -6 124 -15 290 -20 370
-15 228 -12 345 9 425 31 110 50 157 77 181 13 13 24 28 24 34 0 5 0 12 0 15
0 12 74 152 90 170 20 23 81 225 83 274 0 8 9 16 19 19 26 6 45 57 58 154 13
95 25 132 41 122 15 -9 29 14 29 48 0 14 5 49 11 76 l12 49 89 7 c56 3 105 13
133 26 24 11 52 20 63 20 20 0 62 39 62 58 0 16 40 41 56 35 10 -3 21 10 35
42 15 34 33 54 65 73 30 18 44 34 44 48 0 12 10 37 23 55 13 19 22 40 19 48
-2 7 5 22 16 34 18 20 51 105 72 185 10 41 27 62 50 62 18 0 48 46 37 57 -4 3
0 16 8 29 8 12 18 44 22 71 7 39 13 49 30 51 17 3 25 14 33 45 6 23 15 53 19
67 5 14 14 44 20 67 7 24 24 52 41 67 17 13 30 31 30 39 0 8 11 35 25 58 14
24 25 51 25 59 1 8 15 24 33 35 23 14 35 33 44 67 8 27 23 52 37 61 31 21 96
140 96 176 0 31 23 57 41 46 14 -9 29 12 29 43 0 12 6 33 14 45 8 12 17 41 20
65 6 53 12 62 39 62 19 0 25 8 35 58 22 99 32 166 33 201 1 19 4 44 9 55 9 24
-13 235 -28 262 -5 11 -12 36 -16 57 -6 32 -12 39 -37 44 -24 4 -29 11 -29 33
0 34 -44 90 -71 90 -12 0 -27 13 -37 30 -18 31 -56 50 -103 50 -31 0 -32 2
-29 70 2 51 14 70 32 52 21 -21 29 -13 23 21 -5 26 -2 36 19 55 19 16 26 32
26 59 0 58 10 68 59 56 30 -8 41 -8 41 1 0 17 -13 32 -32 39 -23 8 -23 23 2
40 11 7 31 31 46 52 20 30 24 46 19 72 -7 37 7 44 36 17 16 -15 17 -14 12 6
-3 12 -14 27 -24 33 -11 7 -19 23 -19 39 0 25 4 28 33 28 33 0 32 -1 76 90 4
8 22 19 39 24 49 15 70 81 36 116 -12 12 -16 12 -29 -5 -12 -17 -14 -18 -15
-3 0 9 5 18 12 20 9 3 7 14 -5 40 -28 59 -25 65 30 49 l33 -9 -7 59 c-4 46 -2
68 12 100 14 30 16 42 7 51 -7 7 -12 29 -12 49 0 21 -5 41 -10 44 -18 11 8 33
61 50 44 15 49 20 49 46 0 31 -30 69 -56 69 -9 0 -14 6 -11 13 2 6 14 11 27 9
40 -4 48 12 42 88 -3 46 -1 75 7 84 9 11 9 19 0 34 -10 16 -10 29 -1 60 7 22
12 55 12 73 1 40 19 75 40 74 15 0 27 24 29 61 1 13 -8 25 -24 32 -14 6 -25
16 -25 21 0 5 11 12 25 15 20 5 25 13 25 38 0 17 -8 40 -17 51 -17 18 -17 19
1 32 25 19 17 50 -14 50 -31 0 -36 38 -5 44 30 5 32 15 24 87 -7 50 -5 74 7
105 9 21 14 45 11 52 -3 7 -1 49 3 92 5 49 4 97 -2 126 -10 43 -12 45 -41 41
-22 -4 -28 -1 -25 9 3 8 19 14 39 14 l34 0 -1 60 c-2 96 -3 148 -4 178 0 15
-1 42 -1 60 -4 146 4 334 17 399 15 73 15 78 -3 101 -12 17 -27 24 -48 23 -21
-1 -30 4 -30 14 0 10 10 15 32 15 17 0 33 2 36 5 3 3 8 46 11 97 7 96 -5 152
-40 178 -14 10 -14 12 0 24 19 16 20 33 4 78 -9 25 -16 32 -30 27 -14 -4 -18
0 -18 21 0 14 -5 36 -11 47 -8 14 -8 23 0 31 14 14 14 64 1 72 -7 4 -10 47 -8
113 l3 107 -26 -2 c-20 -1 -28 5 -36 28 -10 24 -16 29 -35 24 -23 -6 -23 -5
-23 77 l0 83 29 5 c40 7 43 26 6 33 -61 13 -47 61 21 72 49 9 47 12 -13 20
-84 12 -103 20 -101 44 2 15 -4 24 -20 30 -35 13 -49 36 -45 73 l3 33 17 -30
17 -30 1 32 c0 23 8 38 33 57 17 14 27 26 22 26 -6 0 -16 -5 -22 -11 -5 -5
-24 -11 -41 -11 -23 -1 -38 7 -58 31 -22 27 -31 31 -55 26 -32 -7 -35 0 -17
40 9 21 9 28 -1 35 -9 5 -11 17 -7 33 5 20 1 26 -16 30 -20 6 -20 7 -4 32 10
14 16 38 14 53 -2 21 -10 28 -32 32 -35 6 -37 24 -2 28 16 2 28 13 36 33 13
31 7 50 -11 32 -15 -15 -57 -4 -64 17 -3 10 -15 20 -25 23 -11 3 -20 10 -20
15 0 20 55 72 76 72 22 0 34 17 34 47 0 13 -8 14 -46 8 l-47 -7 7 35 6 34 -39
-1 c-21 0 -51 6 -66 14 -21 11 -26 19 -21 41 4 20 -2 33 -23 53 -15 14 -32 26
-39 26 -10 0 -32 30 -32 45 0 3 12 4 27 3 18 -2 28 2 30 12 3 11 -5 15 -27 15
-16 1 -30 -2 -30 -5 0 -4 -6 -7 -12 -7 -7 0 -22 -4 -33 -8 -18 -6 -18 -5 3 13
12 11 22 25 22 30 0 20 52 72 73 73 23 1 11 6 -82 29 -60 15 -71 9 -71 -41 0
-36 -2 -40 -15 -29 -12 10 -21 10 -41 1 -25 -11 -44 -8 -44 9 0 4 11 11 25 14
16 4 25 13 25 26 0 16 -7 20 -34 20 -36 0 -57 17 -37 29 6 4 41 3 77 -3 73
-11 84 -5 84 47 0 20 -5 27 -18 27 -11 0 -27 9 -37 20 -11 12 -25 18 -36 15
-28 -9 -61 13 -54 36 6 19 -3 25 -60 44 -16 5 -17 8 -5 15 8 6 25 10 38 10 29
0 39 27 18 48 -11 11 -33 17 -67 17 -38 0 -53 4 -60 18 -6 10 -22 17 -42 17
-52 0 -77 11 -77 32 0 14 5 18 18 14 51 -15 76 -16 176 -7 60 6 111 13 114 16
3 3 -3 14 -12 24 -17 19 -18 19 -37 0 -22 -22 -53 -15 -46 12 4 14 0 19 -13
19 -10 0 -20 -6 -23 -12 -3 -10 -7 -10 -19 0 -9 7 -23 9 -33 6 -11 -5 -22 -1
-30 9 -8 11 -33 17 -81 21 -38 3 -70 5 -71 5 -1 1 -12 22 -23 49 -19 42 -23
45 -34 30 -15 -20 -51 -24 -62 -6 -4 6 4 21 19 34 34 29 34 40 -1 47 -19 4
-34 17 -48 44 -14 27 -27 38 -44 38 -14 0 -27 9 -33 23 -6 12 -19 22 -30 22
-20 0 -20 0 -1 23 20 24 44 63 44 73 0 3 -7 4 -15 0 -11 -4 -15 2 -15 22 0 16
-3 22 -8 15 -5 -8 -40 -11 -110 -10 -90 1 -102 4 -102 19 0 13 11 20 40 24 40
7 50 17 29 29 -6 5 -2 13 11 22 35 25 9 39 -40 23 -31 -10 -43 -11 -52 -2 -7
7 -29 12 -49 12 -52 0 -69 9 -69 35 0 25 17 35 61 35 40 0 38 26 -3 34 -18 3
-63 6 -100 6 l-68 -1 0 35 c0 42 -13 46 -36 11 -9 -15 -26 -25 -39 -25 -15 0
-25 -8 -29 -22 -4 -18 -8 -20 -17 -11 -10 10 -9 17 4 31 19 20 23 62 7 62 -6
0 -14 10 -19 22 -7 20 -8 20 -19 -10 -7 -22 -16 -30 -26 -26 -9 3 -20 -3 -28
-15 -19 -30 -31 -26 -23 8 6 29 6 30 -28 24 -29 -4 -37 -1 -46 16 -7 11 -18
21 -25 21 -13 0 -26 20 -26 40 0 5 9 12 20 15 11 3 20 11 20 16 0 14 -30 11
-46 -6 -21 -21 -37 -19 -29 4 4 15 0 20 -17 23 -24 3 -27 15 -14 55 6 18 3 23
-17 28 -18 5 -32 0 -52 -19 -16 -15 -30 -24 -33 -22 -2 3 -1 35 3 72 5 53 11
67 26 71 10 3 19 12 19 19 0 18 -15 18 -34 -1 -8 -8 -20 -15 -26 -15 -6 0 -15
-11 -20 -25 -11 -28 -37 -33 -47 -9 -4 11 1 22 12 30 14 11 16 17 8 25 -17 17
-76 -27 -68 -50 9 -30 -45 -61 -103 -58 -37 1 -45 5 -35 12 9 7 13 23 11 40
-4 42 -49 48 -74 11 -12 -19 -25 -26 -48 -26 -18 0 -40 -6 -50 -13 -11 -8 -35
-11 -69 -7 -52 5 -52 5 -52 39 0 29 -4 36 -25 41 -16 4 -26 14 -28 28 -3 21
-4 21 -26 -5 -21 -24 -27 -26 -48 -16 -15 7 -30 8 -39 2 -44 -28 -84 18 -55
63 26 40 12 58 -45 58 -37 0 -49 4 -49 15 0 9 7 18 15 21 23 9 18 26 -5 19
-11 -4 -29 0 -42 9 -12 9 -37 16 -55 16 -18 0 -33 5 -33 10 0 6 5 10 10 10 6
0 10 7 10 15 0 16 -30 10 -42 -9 -4 -6 -14 -3 -27 8 -16 15 -26 17 -43 9 -13
-6 -40 -6 -67 -1 -34 6 -48 5 -61 -7 -25 -23 -38 -18 -46 18 -10 42 -11 46
-14 55 -1 4 -7 -9 -14 -28 -8 -23 -20 -36 -34 -38 -13 -2 -24 -13 -28 -28 -3
-13 -12 -24 -20 -24 -10 0 -14 15 -14 58 0 70 -8 102 -25 102 -20 0 -28 -35
-20 -90 7 -54 -9 -78 -25 -36 -11 31 -18 32 -36 9 -12 -16 -15 -16 -24 -3 -5
8 -10 27 -10 41 0 34 -16 47 -70 55 -55 8 -70 19 -70 50 0 12 -5 26 -11 30 -9
5 -10 -6 -5 -42z m-186 -74 c2 -13 10 -29 17 -35 7 -5 16 -29 20 -52 5 -35 4
-43 -8 -43 -10 0 -17 15 -22 49 -4 28 -13 52 -21 55 -18 7 -19 59 -1 54 6 -3
14 -15 15 -28z m-510 -51 c-2 -6 -8 -10 -13 -10 -5 0 -11 4 -13 10 -2 6 4 11
13 11 9 0 15 -5 13 -11z m1332 -83 c0 -16 -18 -31 -27 -22 -8 8 5 36 17 36 5
0 10 -6 10 -14z m-310 -10 c0 -3 -4 -8 -10 -11 -5 -3 -10 -1 -10 4 0 6 5 11
10 11 6 0 10 -2 10 -4z m-1390 -60 c0 -16 -18 -31 -27 -22 -8 8 5 36 17 36 5
0 10 -6 10 -14z m1846 -13 c-10 -10 -19 5 -10 18 6 11 8 11 12 0 2 -7 1 -15
-2 -18z m-2891 -57 c7 3 16 1 19 -4 7 -12 -66 -24 -78 -12 -5 5 -6 16 -2 25 5
15 8 15 27 1 12 -8 27 -12 34 -10z m3445 -112 c0 -8 -4 -12 -10 -9 -5 3 -10
10 -10 16 0 5 5 9 10 9 6 0 10 -7 10 -16z m-3978 -49 c0 -5 -5 -11 -11 -13 -6
-2 -11 4 -11 13 0 9 5 15 11 13 6 -2 11 -8 11 -13z m4248 -55 c0 -5 -4 -10
-10 -10 -5 0 -10 5 -10 10 0 6 5 10 10 10 6 0 10 -4 10 -10z m110 -66 c0 -15
-27 -30 -36 -21 -3 3 -3 15 1 26 7 22 35 18 35 -5z m70 -15 c-12 -22 -30 -25
-30 -6 0 17 21 38 32 31 4 -3 3 -14 -2 -25z m120 -109 c0 -5 -5 -10 -11 -10
-5 0 -7 5 -4 10 3 6 8 10 11 10 2 0 4 -4 4 -10z m195 -101 c9 -13 3 -19 -23
-24 -28 -5 -37 11 -15 24 23 13 30 13 38 0z m24 -96 c-7 -10 -15 -20 -16 -22
-4 -6 -33 20 -33 30 0 5 14 9 31 9 28 0 30 -2 18 -17z m251 -3 c0 -13 -7 -20
-20 -20 -13 0 -20 7 -20 20 0 13 7 20 20 20 13 0 20 -7 20 -20z m-5100 -5 c0
-8 -4 -15 -10 -15 -5 0 -10 7 -10 15 0 8 5 15 10 15 6 0 10 -7 10 -15z m5028
-67 c15 -19 19 -61 5 -65 -7 -3 -15 7 -19 21 -4 19 -13 26 -37 28 -47 5 -47
28 1 28 22 0 44 -6 50 -12z m-5028 -39 c0 -11 -4 -17 -10 -14 -5 3 -10 13 -10
21 0 8 5 14 10 14 6 0 10 -9 10 -21z m5189 -68 c17 -11 8 -39 -14 -48 -23 -8
-34 8 -24 35 9 24 16 26 38 13z m-6169 -66 c0 -8 -4 -15 -10 -15 -5 0 -10 7
-10 15 0 8 5 15 10 15 6 0 10 -7 10 -15z m600 -15 c0 -5 -4 -10 -10 -10 -5 0
-10 5 -10 10 0 6 5 10 10 10 6 0 10 -4 10 -10z m5828 -49 c5 -34 -14 -50 -33
-25 -14 19 -15 18 -35 -6 l-20 -25 0 27 c0 52 81 79 88 29z m-138 -11 c0 -20
-5 -30 -15 -30 -21 0 -30 27 -15 45 19 23 30 18 30 -15z m-72 -12 c-7 -19 -35
-21 -41 -3 -5 11 0 15 19 15 16 0 24 -5 22 -12z m-4088 -7 c0 -6 -4 -13 -10
-16 -5 -3 -10 1 -10 9 0 9 5 16 10 16 6 0 10 -4 10 -9z m3404 3 c26 -10 18
-24 -13 -24 -32 0 -50 15 -29 23 19 8 24 8 42 1z m574 -46 c-5 -15 -88 -24
-88 -10 0 16 13 22 53 22 26 0 37 -4 35 -12z m-5179 -70 c0 -10 -6 -18 -14
-18 -11 0 -15 11 -15 38 0 70 24 53 29 -20z m4806 62 c-3 -5 -13 -10 -21 -10
-8 0 -14 5 -14 10 0 6 9 10 21 10 11 0 17 -4 14 -10z m515 -115 c-47 -18 -58
-18 -34 0 10 8 30 14 44 14 22 0 21 -2 -10 -14z m-30 -90 c0 -8 -4 -15 -10
-15 -5 0 -10 7 -10 15 0 8 5 15 10 15 6 0 10 -7 10 -15z m320 -54 c9 -10 26
-18 39 -17 13 1 26 -5 28 -11 6 -17 -39 -33 -92 -33 -34 0 -50 6 -75 30 -18
17 -38 30 -45 30 -27 0 -25 19 2 23 52 9 127 -3 143 -22z m-7080 -12 c0 -5 -4
-9 -10 -9 -5 0 -10 7 -10 16 0 8 5 12 10 9 6 -3 10 -10 10 -16z m6627 5 c-3
-3 -12 -4 -19 -1 -8 3 -5 6 6 6 11 1 17 -2 13 -5z m-5809 -31 c-4 -22 -22 -20
-26 1 -2 10 3 16 13 16 10 0 15 -7 13 -17z m6132 -98 c0 -8 -7 -15 -15 -15 -8
0 -15 7 -15 15 0 8 7 15 15 15 8 0 15 -7 15 -15z m285 -37 c57 -1 85 -10 85
-29 0 -5 -11 -4 -25 1 -18 7 -32 6 -45 -3 -16 -9 -24 -9 -40 1 -11 6 -38 12
-60 12 -38 0 -49 8 -33 24 4 4 19 4 33 0 14 -3 52 -6 85 -6z m-3685 -48 c0
-11 -4 -20 -10 -20 -5 0 -10 9 -10 20 0 11 5 20 10 20 6 0 10 -9 10 -20z
m-3280 0 c0 -16 -33 -80 -42 -80 -11 0 -10 18 2 25 6 3 10 16 10 29 0 12 3 26
7 29 9 10 23 8 23 -3z m6970 -20 c0 -5 -4 -10 -10 -10 -5 0 -10 5 -10 10 0 6
5 10 10 10 6 0 10 -4 10 -10z m68 -17 c-5 -25 -28 -28 -28 -4 0 12 6 21 16 21
9 0 14 -7 12 -17z m-5078 -88 c0 -8 -4 -15 -10 -15 -5 0 -10 7 -10 15 0 8 5
15 10 15 6 0 10 -7 10 -15z m100 -27 c0 -21 -3 -29 -10 -22 -5 5 -7 19 -4 32
9 31 14 27 14 -10z m-1407 7 c7 -16 -8 -29 -23 -20 -10 6 -2 35 10 35 4 0 10
-7 13 -15z m552 -45 c3 -5 1 -10 -4 -10 -6 0 -11 5 -11 10 0 6 2 10 4 10 3 0
8 -4 11 -10z m-1685 -36 c0 -8 -4 -12 -10 -9 -5 3 -10 10 -10 16 0 5 5 9 10 9
6 0 10 -7 10 -16z m7590 -14 c0 -5 -4 -10 -10 -10 -5 0 -10 5 -10 10 0 6 5 10
10 10 6 0 10 -4 10 -10z m-6032 -118 c-5 -44 -23 -41 -29 5 -5 38 -4 41 13 32
13 -7 18 -19 16 -37z m1046 -56 c-3 -14 -10 -26 -15 -26 -4 0 -3 14 3 31 12
36 22 33 12 -5z m5316 24 c0 -5 -5 -10 -11 -10 -5 0 -7 5 -4 10 3 6 8 10 11
10 2 0 4 -4 4 -10z m-6463 -72 c-3 -7 -5 -2 -5 12 0 14 2 19 5 13 2 -7 2 -19
0 -25z m165 -90 c-9 -52 -10 -51 -10 37 0 77 1 85 10 53 6 -24 6 -55 0 -90z
m-58 35 c9 -57 7 -103 -4 -103 -5 0 -10 21 -10 48 0 26 -3 57 -6 70 -4 12 -2
22 4 22 5 0 12 -17 16 -37z m1014 15 c-20 -29 -38 -34 -38 -10 0 20 12 30 39
31 11 1 11 -3 -1 -21z m-1291 -75 c-3 -10 -5 -2 -5 17 0 19 2 27 5 18 2 -10 2
-26 0 -35z m613 -28 c0 -13 -4 -27 -10 -30 -6 -4 -10 8 -10 30 0 22 4 34 10
30 6 -3 10 -17 10 -30z m-880 5 c0 -11 -2 -20 -4 -20 -2 0 -6 9 -9 20 -3 11
-1 20 4 20 5 0 9 -9 9 -20z m756 -96 c-9 -23 -26 -6 -26 26 0 35 24 46 28 13
2 -14 1 -31 -2 -39z m2041 -1 c-3 -10 -5 -4 -5 12 0 17 2 24 5 18 2 -7 2 -21
0 -30z m-1660 -15 c-3 -7 -5 -2 -5 12 0 14 2 19 5 13 2 -7 2 -19 0 -25z
m-2531 -15 c-11 -11 -19 6 -11 24 8 17 8 17 12 0 3 -10 2 -21 -1 -24z m2270
-12 c-8 -13 -36 -15 -36 -3 0 4 5 13 12 20 14 14 34 0 24 -17z m-1016 -3 c0
-16 -3 -19 -11 -11 -6 6 -8 16 -5 22 11 17 16 13 16 -11z m2453 -56 l6 -54
-19 25 c-20 26 -25 53 -14 82 10 26 21 5 27 -53z m-1871 21 c7 -25 -1 -43 -18
-43 -8 0 -14 10 -14 23 0 38 24 52 32 20z m803 -151 c-11 -12 -16 9 -17 76 -1
103 16 115 20 13 2 -46 0 -86 -3 -89z m3518 125 c3 -22 2 -35 -4 -32 -5 4 -9
22 -9 42 0 45 5 40 13 -10z m-6143 23 c0 -5 -2 -10 -4 -10 -3 0 -8 5 -11 10
-3 6 -1 10 4 10 6 0 11 -4 11 -10z m1207 -77 c-3 -10 -5 -4 -5 12 0 17 2 24 5
18 2 -7 2 -21 0 -30z m173 17 c0 -12 -28 -25 -36 -17 -9 9 6 27 22 27 8 0 14
-5 14 -10z m2457 -12 c-3 -8 -6 -5 -6 6 -1 11 2 17 5 13 3 -3 4 -12 1 -19z
m-3211 -79 c10 -17 -13 -36 -27 -22 -12 12 -4 33 11 33 5 0 12 -5 16 -11z
m2412 -1 c-5 -16 -48 -24 -48 -10 0 11 17 20 38 21 8 1 12 -5 10 -11z m5477
-8 c-3 -5 -10 -10 -16 -10 -5 0 -9 5 -9 10 0 6 7 10 16 10 8 0 12 -4 9 -10z
m-6235 -53 c0 -49 -12 -77 -32 -77 -12 0 -10 62 3 99 16 47 29 38 29 -22z
m-920 4 c0 -17 5 -33 10 -36 12 -7 13 -35 2 -35 -12 0 -44 78 -37 90 12 20 25
10 25 -19z m1270 14 c0 -8 -4 -15 -10 -15 -5 0 -10 7 -10 15 0 8 5 15 10 15 6
0 10 -7 10 -15z m1205 -6 c11 -11 20 -142 11 -166 -12 -31 -24 4 -25 74 -1 79
-5 87 -36 67 -22 -14 -24 -14 -30 5 -3 12 -3 26 0 31 8 12 64 4 80 -11z m387
-46 c3 -29 2 -53 -2 -53 -13 0 -20 29 -20 78 0 61 16 43 22 -25z m-1696 -32
c-7 -82 -6 -91 13 -110 21 -21 28 -37 13 -27 -5 3 -9 -35 -10 -85 0 -79 2 -90
16 -87 14 3 17 16 17 75 0 55 4 76 18 90 16 16 17 16 17 -12 0 -15 7 -37 17
-47 13 -15 14 -23 5 -42 -7 -17 -9 -66 -5 -144 7 -149 6 -156 -39 -134 -31 16
-36 24 -53 97 -11 44 -20 107 -20 140 -1 33 -7 89 -14 125 -16 84 -2 250 22
250 6 0 7 -32 3 -89z m-2069 42 c-3 -10 -5 -4 -5 12 0 17 2 24 5 18 2 -7 2
-21 0 -30z m983 -4 c0 -10 -4 -19 -10 -19 -5 0 -10 12 -10 26 0 14 4 23 10 19
6 -3 10 -15 10 -26z m664 -81 c-17 -37 -44 -52 -44 -24 0 7 10 35 21 62 21 46
22 47 31 24 6 -18 4 -35 -8 -62z m706 57 c0 -8 -7 -15 -15 -15 -16 0 -20 12
-8 23 11 12 23 8 23 -8z m-364 -41 c-4 -14 -9 -24 -12 -21 -3 2 -2 17 2 31 3
15 9 25 11 22 3 -3 2 -17 -1 -32z m-1200 -41 c-10 -10 -19 5 -10 18 6 11 8 11
12 0 2 -7 1 -15 -2 -18z m1184 -15 c0 -16 -3 -19 -11 -11 -6 6 -8 16 -5 22 11
17 16 13 16 -11z m340 -23 c0 -19 -4 -37 -10 -40 -6 -4 -10 12 -10 40 0 28 4
44 10 40 6 -3 10 -21 10 -40z m943 -58 c-3 -37 -10 -67 -14 -67 -13 0 -11 98
2 122 16 30 19 18 12 -55z m-2603 -39 c0 -7 -7 -31 -15 -53 -14 -39 -14 -39
-14 -10 -1 39 9 75 20 75 5 0 9 -6 9 -12z m1786 -39 c1 -63 2 -69 18 -69 15 0
26 -21 26 -52 0 -11 8 -34 18 -50 13 -23 14 -32 5 -35 -7 -3 -13 -20 -13 -39
0 -28 -5 -36 -26 -44 -14 -6 -27 -10 -29 -10 -2 0 -9 19 -16 43 -6 23 -18 50
-27 60 -12 14 -16 40 -16 119 0 87 3 102 19 114 29 21 40 12 41 -37z m-1886
-74 c0 -14 -4 -25 -10 -25 -5 0 -10 11 -10 25 0 14 5 25 10 25 6 0 10 -11 10
-25z m-143 -7 c-3 -8 -6 -5 -6 6 -1 11 2 17 5 13 3 -3 4 -12 1 -19z m1191 -1
c2 -12 -3 -17 -17 -17 -12 0 -21 6 -21 13 0 31 32 34 38 4z m-908 3 c0 -5 -4
-10 -10 -10 -5 0 -10 5 -10 10 0 6 5 10 10 10 6 0 10 -4 10 -10z m59 -53 c-1
-41 -3 -47 -9 -27 -12 37 -12 92 0 85 6 -3 10 -30 9 -58z m81 43 c13 -24 10
-85 -4 -85 -5 0 -15 17 -22 38 -19 56 1 93 26 47z m685 0 c3 -5 1 -10 -4 -10
-6 0 -11 5 -11 10 0 6 2 10 4 10 3 0 8 -4 11 -10z m-2288 -26 c-3 -3 -12 -4
-19 -1 -8 3 -5 6 6 6 11 1 17 -2 13 -5z m2797 -7 c24 -17 18 -70 -8 -75 -29
-6 -42 14 -22 34 12 12 14 20 7 27 -25 25 -7 36 23 14z m230 -104 c15 -103 17
-163 7 -163 -5 0 -13 16 -17 35 -3 19 -12 35 -18 35 -19 0 -36 -22 -36 -47 0
-25 -10 -29 -28 -11 -17 17 -15 48 2 48 24 0 46 41 46 86 0 22 3 44 7 47 16
17 32 4 37 -30z m-1481 -34 c-8 -29 -13 -23 -13 14 0 22 3 28 9 18 5 -7 6 -22
4 -32z m135 -71 l-13 -43 -3 38 c-2 21 2 45 9 54 19 22 22 1 7 -49z m1575 -22
c18 -53 -16 -103 -50 -75 -9 8 -12 22 -7 43 15 70 40 84 57 32z m-2103 -26 c0
-5 -5 -10 -11 -10 -5 0 -7 5 -4 10 3 6 8 10 11 10 2 0 4 -4 4 -10z m8015 0 c3
-5 -1 -10 -9 -10 -9 0 -16 5 -16 10 0 6 4 10 9 10 6 0 13 -4 16 -10z m-6095
-92 c0 -23 -3 -29 -9 -19 -8 12 -4 51 5 51 2 0 4 -15 4 -32z m1050 -72 c0 -12
-6 -31 -14 -42 -12 -16 -15 -16 -19 -4 -12 36 -13 70 -3 73 20 7 36 -5 36 -27z
m-1058 7 c10 -9 18 -24 18 -35 0 -10 5 -27 12 -38 18 -28 4 -34 -29 -14 -35
23 -44 35 -38 52 3 7 0 22 -5 33 -9 15 -7 19 6 19 10 0 26 -7 36 -17z m401
-61 c5 -24 6 -47 3 -50 -12 -11 -35 23 -42 61 -6 34 -4 39 12 35 13 -2 21 -16
27 -46z m-3513 -62 c0 -5 -7 -10 -15 -10 -8 0 -15 5 -15 10 0 6 7 10 15 10 8
0 15 -4 15 -10z m1470 -145 c0 -8 -4 -17 -10 -20 -6 -4 -10 5 -10 20 0 15 4
24 10 20 6 -3 10 -12 10 -20z m-100 -183 c0 -7 -4 -10 -10 -7 -5 3 -10 16 -10
28 0 18 2 19 10 7 5 -8 10 -21 10 -28z m0 -73 c0 -5 -4 -9 -10 -9 -5 0 -10 7
-10 16 0 8 5 12 10 9 6 -3 10 -10 10 -16z m-385 -159 c-3 -5 -13 -10 -21 -10
-8 0 -14 5 -14 10 0 6 9 10 21 10 11 0 17 -4 14 -10z m145 -225 c0 -8 -4 -15
-10 -15 -5 0 -10 7 -10 15 0 8 5 15 10 15 6 0 10 -7 10 -15z m-1219 -22 c-8
-15 -10 -15 -11 -2 0 17 10 32 18 25 2 -3 -1 -13 -7 -23z m819 13 c0 -3 -4 -8
-10 -11 -5 -3 -10 -1 -10 4 0 6 5 11 10 11 6 0 10 -2 10 -4z m40 -182 c0 -21
-18 -54 -30 -54 -14 0 -12 44 2 58 17 17 28 15 28 -4z m-340 -94 c0 -5 -7 -10
-15 -10 -8 0 -15 5 -15 10 0 6 7 10 15 10 8 0 15 -4 15 -10z m330 -9 c0 -12
-20 -25 -27 -18 -7 7 6 27 18 27 5 0 9 -4 9 -9z m-134 -50 c-4 -6 -14 -11 -22
-11 -12 0 -13 4 -3 21 7 14 14 18 21 11 6 -6 7 -15 4 -21z m8669 8 c0 -7 -8
-15 -17 -17 -18 -3 -25 18 -11 32 10 10 28 1 28 -15z m-8805 -8 c0 -6 -4 -13
-10 -16 -5 -3 -10 1 -10 9 0 9 5 16 10 16 6 0 10 -4 10 -9z m290 -24 c0 -13
-3 -27 -7 -31 -5 -4 -8 -22 -8 -38 0 -18 -6 -33 -14 -36 -11 -4 -12 3 -7 32 4
21 3 36 -3 36 -25 0 -41 -14 -41 -36 0 -45 -43 -121 -75 -136 -18 -8 -31 -22
-33 -35 -6 -38 -22 -26 -22 16 0 45 15 92 33 103 7 4 22 8 35 8 16 0 22 6 22
24 0 24 36 69 79 98 34 23 41 23 41 -5z m-290 -91 c-14 -14 -24 0 -16 21 6 15
8 15 16 3 6 -9 5 -19 0 -24z m-340 15 c0 -6 -4 -13 -10 -16 -5 -3 -10 1 -10 9
0 9 5 16 10 16 6 0 10 -4 10 -9z m614 -129 c-1 -18 -5 -39 -8 -47 -5 -15 -11
-14 -55 12 -2 2 4 19 15 38 24 45 50 43 48 -3z m-344 -76 c-14 -14 -24 0 -16
21 6 15 8 15 16 3 6 -9 5 -19 0 -24z m256 -23 c7 -10 14 -26 14 -36 0 -13 -5
-16 -23 -12 -32 8 -56 -19 -31 -33 16 -9 15 -13 -14 -42 -18 -17 -32 -36 -32
-41 0 -5 -7 -9 -16 -9 -12 0 -14 5 -9 18 4 9 10 27 12 40 3 12 9 25 14 28 5 3
9 24 9 48 0 23 3 46 7 49 13 13 56 7 69 -10z m-126 -23 c0 -5 -4 -10 -10 -10
-5 0 -10 5 -10 10 0 6 5 10 10 10 6 0 10 -4 10 -10z m-640 -39 c0 -19 -48 -62
-55 -51 -4 6 4 22 17 35 25 25 38 30 38 16z m340 -51 c0 -16 -4 -30 -10 -30
-5 0 -10 14 -10 30 0 17 5 30 10 30 6 0 10 -13 10 -30z m220 -100 c-10 -53
-16 -58 -40 -32 -12 12 -27 22 -35 22 -29 0 -16 30 13 31 21 0 53 9 68 18 1 1
-2 -17 -6 -39z m-95 -57 c-10 -16 -24 -36 -31 -47 -7 -10 -10 -32 -7 -50 4
-25 -1 -37 -24 -61 -15 -17 -38 -43 -50 -60 -12 -16 -25 -26 -29 -22 -4 4 2
14 13 22 15 11 24 34 33 85 11 63 16 74 51 103 21 19 39 39 39 45 0 7 5 12 11
12 7 0 4 -11 -6 -27z m170 -4 c0 -8 -10 -18 -23 -24 -12 -5 -26 -23 -31 -40
-4 -16 -18 -46 -30 -65 -18 -30 -21 -32 -21 -13 0 12 4 24 9 28 6 3 13 26 17
50 4 32 14 52 32 65 28 22 47 22 47 -1z m-297 -39 c2 -48 1 -50 -24 -50 -43 0
-61 -16 -68 -63 -8 -49 -35 -82 -78 -92 -21 -5 -28 -13 -28 -31 0 -13 -4 -24
-9 -24 -15 0 -5 114 13 148 9 18 23 32 32 32 13 0 13 -4 -3 -30 -13 -22 -14
-33 -6 -41 16 -16 30 -4 38 30 12 54 60 136 83 139 11 2 26 10 32 18 7 8 13
14 14 14 1 0 3 -22 4 -50z m1864 3 c-8 -3 -11 -16 -6 -39 7 -36 -11 -64 -40
-64 -9 0 -16 -4 -16 -10 0 -5 -6 -10 -12 -10 -7 0 -14 -12 -15 -27 -1 -16 -4
-45 -8 -67 -3 -23 -1 -44 6 -52 18 -22 25 -17 26 20 1 46 9 56 41 56 42 0 93
17 109 37 8 10 23 36 33 58 l19 40 7 -32 c8 -39 14 -40 40 -12 29 32 84 51
124 43 19 -3 29 -9 23 -11 -7 -3 -13 -14 -13 -26 l1 -22 19 23 c16 19 27 23
62 20 39 -3 43 -6 48 -33 4 -25 10 -30 38 -33 19 -2 36 -11 42 -23 6 -10 19
-19 28 -19 28 0 62 -29 62 -54 0 -35 37 -76 68 -76 25 0 70 -19 47 -20 -5 0
-4 -4 4 -9 21 -14 4 -54 -21 -48 -13 4 -29 -3 -45 -19 -21 -21 -24 -31 -18
-61 8 -43 -3 -53 -57 -53 -27 0 -40 -6 -48 -20 -6 -12 -21 -20 -36 -20 -14 0
-34 -5 -44 -10 -10 -6 -43 -12 -71 -15 -29 -3 -67 -9 -83 -15 -17 -5 -75 -19
-129 -31 -70 -16 -108 -30 -134 -50 -37 -30 -39 -31 -121 -49 -46 -11 -54 -16
-58 -39 -5 -24 -15 -30 -78 -49 -40 -12 -82 -22 -94 -22 -17 0 -22 -6 -22 -27
0 -16 -3 -37 -6 -49 -7 -27 40 -84 69 -84 12 0 31 -7 41 -15 27 -21 82 -19
130 4 51 24 79 30 186 43 78 10 89 9 130 -10 25 -12 59 -30 75 -42 17 -11 44
-20 61 -20 34 0 48 -12 57 -49 4 -17 1 -24 -14 -28 -10 -3 -19 -9 -19 -14 0
-14 -133 -50 -141 -38 -4 8 -26 4 -66 -11 -53 -19 -61 -26 -71 -57 -15 -49 -1
-83 34 -83 18 0 38 -11 58 -34 20 -22 43 -36 64 -39 18 -3 40 -11 48 -18 11
-9 18 -9 26 -1 30 30 77 -11 78 -65 0 -17 5 -35 10 -38 6 -3 10 -15 10 -26 0
-13 4 -18 12 -13 7 5 8 3 4 -5 -11 -17 20 -48 61 -62 31 -10 34 -14 28 -39 -4
-17 -2 -31 5 -35 7 -4 19 -21 26 -39 13 -28 14 -28 10 -5 -4 17 0 31 9 39 18
15 31 7 19 -12 -14 -21 -13 -38 1 -38 23 0 37 -27 26 -48 -9 -16 -5 -20 26
-30 24 -7 41 -8 49 -2 7 7 20 5 38 -4 18 -9 23 -16 14 -19 -7 -3 6 -4 29 -2
55 5 80 -3 86 -26 4 -15 10 -17 37 -9 18 5 40 6 49 2 9 -4 59 -7 112 -6 80 1
103 5 131 22 20 12 45 22 56 22 29 0 68 18 123 57 26 18 56 33 68 33 12 0 31
5 42 10 10 6 19 9 19 6 0 -12 -24 -56 -30 -56 -4 0 -27 -13 -51 -30 -24 -16
-52 -30 -61 -30 -9 0 -29 -11 -45 -24 -41 -34 -227 -50 -501 -43 -258 8 -334
14 -386 33 -23 9 -82 23 -133 33 -64 12 -103 25 -132 45 -23 16 -41 32 -41 36
0 14 -72 80 -87 80 -28 0 -53 21 -53 45 0 28 -15 34 -24 10 -3 -8 -13 -15 -22
-15 -11 0 -14 5 -9 18 17 41 18 55 4 47 -11 -7 -11 -5 1 10 8 10 10 16 3 12
-6 -4 -14 -3 -17 2 -3 5 -15 7 -26 4 -11 -3 -21 0 -21 6 -5 42 -21 58 -66 65
-46 7 -55 -3 -27 -31 10 -10 13 -25 10 -39 -4 -13 -3 -24 2 -24 4 0 18 -9 30
-20 12 -11 24 -20 27 -20 29 1 37 -4 46 -30 6 -16 19 -32 30 -35 11 -4 17 -11
13 -16 -3 -5 -9 -7 -13 -5 -3 3 -7 -9 -6 -25 0 -16 7 -34 15 -39 12 -8 9 -10
-13 -10 -15 0 -38 6 -50 14 -12 7 -58 21 -102 31 -44 10 -111 28 -150 40 -59
19 -70 26 -68 44 2 15 -8 25 -40 39 -43 19 -75 48 -64 58 3 3 -5 26 -19 51
-13 25 -24 58 -24 72 -1 25 -1 25 -15 7 -8 -11 -16 -18 -18 -15 -12 13 -49
198 -56 278 -7 82 -12 96 -32 112 -24 18 -24 20 -22 170 2 84 5 155 8 158 4 3
10 -1 15 -9 12 -20 17 8 30 170 6 74 15 151 20 170 4 19 14 70 21 113 8 44 17
76 24 74 5 -2 10 -13 10 -24 0 -12 3 -25 8 -29 4 -4 7 5 7 20 0 14 14 54 30
89 30 60 33 63 88 79 31 9 72 19 90 22 19 3 46 15 62 26 15 11 39 20 52 21 12
0 32 4 43 9 11 5 67 9 125 9 58 -1 99 -3 92 -6z m61 0 c-7 -2 -19 -2 -25 0 -7
3 -2 5 12 5 14 0 19 -2 13 -5z m627 -17 c46 -9 89 -21 94 -26 9 -9 -116 -6
-212 6 -38 5 -114 9 -307 17 -27 2 -56 7 -64 11 -9 6 -19 2 -30 -13 l-17 -22
-12 27 -13 27 238 -6 c155 -3 268 -11 323 -21z m-2380 -24 c0 -5 -12 -19 -27
-33 -20 -17 -23 -18 -10 -3 9 11 17 26 17 32 0 7 5 12 10 12 6 0 10 -4 10 -8z
m2563 -9 c-7 -2 -19 -2 -25 0 -7 3 -2 5 12 5 14 0 19 -2 13 -5z m-2325 -92
c-2 -20 -9 -27 -30 -29 -23 -3 -28 1 -28 18 0 12 10 39 23 60 l22 39 8 -30 c4
-17 7 -43 5 -58z m2647 53 c33 -4 67 -8 75 -9 30 -3 60 -17 60 -26 0 -5 15 -9
33 -9 17 -1 46 -7 62 -15 l30 -13 -42 -1 c-23 -1 -66 8 -95 18 -29 10 -82 26
-118 35 -36 8 -83 20 -105 25 l-40 10 40 -4 c22 -2 67 -7 100 -11z m-2757 -56
c-2 -15 -10 -23 -23 -23 -30 -1 -44 -13 -38 -35 7 -25 -4 -70 -17 -70 -6 0
-10 10 -10 21 0 36 22 99 35 99 7 0 18 7 25 15 18 22 32 18 28 -7z m3121 -33
c94 -16 132 -36 54 -27 -46 5 -169 39 -148 41 6 1 48 -6 94 -14z m-3532 -77
c-3 -7 -5 -2 -5 12 0 14 2 19 5 13 2 -7 2 -19 0 -25z m3871 -50 c37 -15 52
-26 52 -39 0 -14 -7 -19 -25 -19 -14 0 -25 5 -25 10 0 6 5 10 10 10 6 0 10 4
10 9 0 4 -21 14 -47 20 -27 7 -61 19 -78 27 l-30 14 40 -6 c22 -3 64 -15 93
-26z m-3748 -22 c0 -3 -4 -8 -10 -11 -5 -3 -10 -1 -10 4 0 6 5 11 10 11 6 0
10 -2 10 -4z m148 -18 c-5 -32 -28 -35 -28 -4 0 17 5 26 16 26 10 0 14 -7 12
-22z m182 -3 c0 -14 -4 -25 -10 -25 -5 0 -10 11 -10 25 0 14 5 25 10 25 6 0
10 -11 10 -25z m-490 -45 c0 -5 -4 -10 -10 -10 -5 0 -10 5 -10 10 0 6 5 10 10
10 6 0 10 -4 10 -10z m450 -56 c0 -19 -4 -34 -10 -34 -5 0 -11 5 -11 10 -3 20
-4 25 -13 38 -4 7 -5 20 -2 29 10 26 36 -5 36 -43z m110 16 c0 -16 -26 -40
-44 -40 -3 0 -6 14 -6 30 0 25 4 30 25 30 18 0 25 -5 25 -20z m-372 -37 c1
-38 1 -38 -13 -13 -18 32 -19 50 -2 50 9 0 14 -13 15 -37z m-138 7 c0 -5 -4
-10 -10 -10 -5 0 -10 5 -10 10 0 6 5 10 10 10 6 0 10 -4 10 -10z m-50 -124 c0
-14 -24 -29 -33 -19 -3 3 -3 11 0 19 7 18 33 18 33 0z m50 -40 c0 -3 -4 -8
-10 -11 -5 -3 -10 -1 -10 4 0 6 5 11 10 11 6 0 10 -2 10 -4z m-106 -70 c-3 -9
-10 -16 -15 -16 -6 0 -5 9 1 21 13 24 24 20 14 -5z m491 -176 c-3 -5 -11 -10
-16 -10 -6 0 -7 5 -4 10 3 6 11 10 16 10 6 0 7 -4 4 -10z m-427 -22 c-2 -13
-11 -24 -20 -26 -21 -4 -24 18 -6 36 19 19 30 14 26 -10z m8152 -20 c0 -10 -4
-18 -10 -18 -5 0 -10 15 -10 33 0 24 3 28 10 17 5 -8 10 -23 10 -32z m-471
-160 l-2 -43 -6 35 c-7 33 -5 50 5 50 2 0 3 -19 3 -42z m-7329 18 c0 -3 -4 -8
-10 -11 -5 -3 -10 -1 -10 4 0 6 5 11 10 11 6 0 10 -2 10 -4z m-41 -156 c-5
-17 -7 -2 -7 45 0 64 1 66 8 25 4 -25 4 -56 -1 -70z m7362 -172 c-30 -187 -36
-215 -47 -243 -7 -16 -13 -25 -14 -20 0 21 30 232 38 266 5 20 10 71 11 114 1
43 5 83 9 89 12 19 14 -135 3 -206z m-3234 80 c18 -7 33 -16 33 -20 0 -5 12
-22 28 -39 15 -17 31 -47 35 -67 15 -63 19 -162 8 -190 -5 -15 -12 -47 -15
-72 -4 -25 -11 -60 -17 -79 -15 -43 -5 -143 17 -177 15 -23 16 -34 5 -107 -21
-141 -42 -192 -89 -220 -21 -13 -35 -30 -39 -48 -4 -20 -19 -39 -47 -57 -28
-19 -42 -36 -44 -54 -3 -27 -53 -78 -76 -78 -6 0 -17 -19 -24 -42 -7 -24 -24
-56 -37 -73 -22 -27 -27 -29 -54 -18 -16 6 -32 8 -35 5 -3 -3 -6 -33 -6 -67 0
-33 -5 -66 -11 -72 -8 -8 -8 -17 1 -33 14 -26 7 -50 -15 -50 -8 0 -15 -7 -15
-15 0 -9 9 -15 21 -15 18 0 19 -2 6 -14 -8 -9 -24 -12 -36 -9 -11 3 -21 1 -21
-5 0 -5 -12 -18 -27 -29 -16 -10 -28 -27 -28 -38 0 -24 -40 -29 -40 -5 -1 25
-15 40 -40 40 -13 0 -27 5 -30 10 -3 6 -17 10 -31 10 -32 0 -57 23 -42 38 7 7
2 15 -16 27 -35 23 -73 27 -112 10 -18 -7 -36 -9 -41 -4 -4 4 -15 4 -23 -1
-10 -7 -11 -10 -2 -10 22 0 13 -20 -24 -54 -31 -29 -36 -39 -36 -76 l1 -42
-34 5 c-19 3 -37 1 -40 -4 -4 -5 -13 -9 -22 -9 -9 0 -21 -7 -28 -16 -10 -14
-14 -15 -34 -3 -20 12 -24 12 -36 -5 -14 -18 -16 -19 -34 -2 -10 9 -37 19 -60
21 -23 2 -48 11 -57 19 -18 19 -30 20 -40 5 -33 -55 -47 216 -17 346 15 64 23
81 38 83 27 5 45 30 45 63 0 31 31 59 67 59 23 0 56 37 47 52 -3 4 0 8 5 8 6
0 11 -4 11 -10 0 -5 17 -1 38 9 20 11 54 22 75 24 44 6 97 54 98 89 1 73 13
113 37 132 14 12 35 23 46 26 13 4 23 17 27 39 9 41 16 49 54 54 30 4 55 34
55 69 0 9 18 27 39 39 36 20 58 51 65 90 1 8 8 24 15 37 7 13 10 30 7 38 -3 9
-1 12 4 9 6 -4 19 -3 31 0 19 6 19 8 5 30 -17 26 -12 55 10 55 8 0 13 9 11 22
-1 17 4 24 20 26 21 3 48 53 36 66 -3 3 2 9 12 12 12 5 23 1 31 -11 16 -22 18
-12 5 33 -6 21 -6 30 0 26 15 -9 37 14 45 49 10 45 26 67 50 67 23 0 44 21 62
63 8 18 19 27 34 27 13 0 30 5 38 10 21 14 117 12 157 -2z m-3959 -160 c16
-16 15 -55 -2 -61 -20 -8 -26 2 -26 40 0 35 8 41 28 21z m37 -88 c3 -5 1 -10
-4 -10 -6 0 -11 5 -11 10 0 6 2 10 4 10 3 0 8 -4 11 -10z m8115 -109 c0 -6 -4
-13 -10 -16 -5 -3 -10 1 -10 9 0 9 5 16 10 16 6 0 10 -4 10 -9z m-6670 -21 c0
-5 -5 -10 -11 -10 -5 0 -7 5 -4 10 3 6 8 10 11 10 2 0 4 -4 4 -10z m5617 -92
c-3 -8 -6 -5 -6 6 -1 11 2 17 5 13 3 -3 4 -12 1 -19z m-4797 -8 c0 -5 -4 -10
-10 -10 -5 0 -10 5 -10 10 0 6 5 10 10 10 6 0 10 -4 10 -10z m-765 -20 c13 -6
15 -9 5 -9 -8 0 -22 4 -30 9 -18 12 -2 12 25 0z m1505 -137 c0 -5 -7 -17 -15
-27 -8 -11 -15 -28 -15 -37 0 -9 -15 -26 -34 -37 -21 -13 -38 -33 -45 -55 -9
-25 -20 -37 -38 -42 -15 -3 -43 -20 -64 -36 -20 -16 -42 -29 -47 -29 -6 0 -23
-15 -37 -34 -19 -25 -36 -36 -58 -38 -29 -3 -33 -7 -41 -45 -9 -38 -14 -44
-55 -59 -34 -13 -76 -18 -158 -19 -69 0 -116 -4 -123 -11 -7 -7 -30 -9 -56 -6
-39 4 -46 2 -51 -16 -7 -27 -33 -37 -33 -13 0 10 -20 34 -45 52 -31 24 -48 45
-55 72 -8 28 -19 40 -46 52 -19 8 -37 22 -40 32 -3 10 -16 41 -29 68 -13 28
-27 60 -30 73 -4 14 -14 22 -28 22 -35 0 -67 39 -67 81 l0 37 38 -5 c20 -2 91
-10 157 -17 97 -9 120 -14 118 -27 -6 -36 365 -60 470 -30 43 12 64 31 35 31
-8 0 -8 3 -2 9 5 5 62 15 127 21 65 7 139 18 165 25 54 15 102 19 102 8z
m-797 -63 c-14 -6 -32 -6 -45 0 -19 7 -15 9 22 9 37 0 41 -2 23 -9z m1750
-352 c7 -26 1 -38 -19 -38 -15 0 -18 18 -8 44 9 22 21 20 27 -6z m-2408 -407
c3 -5 1 -12 -5 -16 -5 -3 -10 1 -10 9 0 18 6 21 15 7z m2035 -231 c0 -5 -5
-10 -11 -10 -5 0 -7 5 -4 10 3 6 8 10 11 10 2 0 4 -4 4 -10z m-2233 -297 c-3
-10 -5 -4 -5 12 0 17 2 24 5 18 2 -7 2 -21 0 -30z m33 -87 c0 -11 -19 -15 -25
-6 -3 5 1 10 9 10 9 0 16 -2 16 -4z m1635 -248 c8 -44 37 -98 51 -98 6 0 18
-7 25 -16 12 -14 9 -20 -16 -40 -28 -22 -31 -23 -42 -7 -7 9 -13 24 -13 34 0
9 -13 31 -29 48 -27 29 -31 50 -16 99 8 24 33 12 40 -20z m-1775 -8 c0 -11 -4
-20 -9 -20 -5 0 -7 9 -4 20 3 11 7 20 9 20 2 0 4 -9 4 -20z m1789 -357 c-7
-19 -5 -23 10 -23 10 0 21 -7 25 -15 7 -18 -5 -20 -22 -3 -9 9 -12 9 -12 -1 0
-7 -5 -9 -12 -5 -7 4 -5 -2 5 -13 9 -11 17 -31 17 -45 0 -43 -29 -67 -92 -78
-64 -10 -120 4 -117 30 4 34 -12 50 -52 50 -21 0 -39 5 -39 10 0 6 7 10 16 10
24 0 92 43 105 66 15 29 57 49 96 45 24 -2 34 3 43 19 l12 22 12 -23 c8 -15
10 -33 5 -46z m-406 10 c-7 -2 -19 -2 -25 0 -7 3 -2 5 12 5 14 0 19 -2 13 -5z
m37 -78 c0 -9 -9 -15 -25 -15 -16 0 -25 6 -25 15 0 9 9 15 25 15 16 0 25 -6
25 -15z m40 -61 c0 -17 4 -22 15 -18 8 4 13 10 10 14 -7 11 40 21 60 14 12 -5
13 -9 5 -14 -9 -5 -6 -10 9 -15 21 -6 22 -7 4 -21 -10 -7 -33 -14 -52 -14 -29
0 -32 -2 -21 -15 10 -13 11 -20 1 -39 -17 -31 -113 -55 -135 -34 -11 12 -11
17 4 36 10 11 20 18 24 15 10 -10 7 11 -4 27 -9 13 -12 13 -24 -3 -13 -16 -15
-16 -24 13 -6 16 -8 31 -4 31 19 3 48 -4 54 -15 6 -8 8 -8 8 1 0 6 -4 15 -10
18 -5 3 -10 14 -10 23 0 13 10 17 45 18 41 1 45 -1 45 -22z m-145 -33 c3 -5 1
-12 -5 -16 -5 -3 -10 -2 -10 4 0 6 -7 8 -15 5 -8 -4 -15 -1 -15 5 0 13 36 15
45 2z m21 -97 c-2 -11 -11 -19 -22 -19 -21 0 -25 20 -12 48 8 15 11 15 23 4 7
-8 12 -23 11 -33z m629 -331 c12 -4 18 -103 7 -104 -50 -5 -85 -6 -124 -2 -40
5 -47 9 -54 32 -4 14 -6 33 -5 41 5 39 10 41 88 39 43 -1 83 -4 88 -6z m-396
-44 c1 -4 -8 -9 -19 -12 -23 -6 -25 5 -8 36 11 21 11 21 19 2 4 -11 8 -23 8
-26z m531 22 c19 -5 52 -12 72 -16 31 -5 37 -10 35 -28 -2 -19 3 -22 38 -24
109 -7 164 -16 168 -26 2 -7 1 -32 -2 -57 -7 -52 9 -48 -193 -56 -106 -3 -145
-1 -171 10 -34 14 -35 15 -42 90 -3 41 -4 84 0 96 7 22 37 26 95 11z m684 -17
c9 -3 16 -15 16 -25 0 -12 7 -19 18 -19 28 0 42 -21 42 -63 0 -50 -15 -77 -44
-77 -13 0 -29 -7 -36 -15 -9 -11 -17 -12 -31 -4 -11 5 -35 7 -53 3 -19 -3 -40
-3 -47 2 -7 4 -52 8 -102 9 -63 2 -92 6 -98 16 -21 34 -2 138 22 123 6 -3 21
-3 34 0 17 4 22 11 18 22 -3 9 0 20 8 25 16 10 229 12 253 3z m258 -103 c6
-41 -32 -70 -46 -35 -8 20 -8 59 0 66 13 14 42 -6 46 -31z m-1582 -421 c0 -5
13 -10 29 -10 45 0 59 -8 54 -34 -4 -20 0 -24 34 -31 21 -5 48 -7 60 -6 17 2
26 -5 33 -23 9 -25 19 -30 47 -27 19 3 53 -18 53 -32 1 -7 12 -25 25 -42 22
-27 27 -29 45 -17 18 11 25 10 50 -8 24 -17 33 -19 51 -9 29 15 41 -4 34 -49
-4 -23 -3 -32 4 -27 6 3 11 -1 11 -10 0 -9 -4 -13 -10 -10 -9 6 -14 -13 -11
-41 1 -6 -8 -19 -19 -29 -13 -12 -20 -14 -20 -5 0 7 -8 10 -20 7 -11 -3 -20
-1 -20 4 0 5 -5 9 -11 9 -5 0 -8 -4 -4 -9 6 -10 -25 -31 -45 -31 -6 0 -15 10
-20 23 -5 12 -9 17 -9 11 -1 -18 -91 -48 -103 -36 -6 6 -31 9 -57 6 -62 -7
-95 11 -101 56 -4 29 -10 36 -32 38 -34 4 -82 64 -73 92 5 16 2 20 -18 20 -14
0 -29 6 -34 13 -8 9 -10 93 -4 150 1 5 9 6 20 2 12 -3 21 0 25 10 4 12 10 14
25 6 16 -9 18 -8 14 9 -3 12 -19 24 -37 29 l-31 9 33 1 c17 1 32 -3 32 -9z
m-542 -229 c2 -1 2 -8 0 -17 -2 -10 3 -19 10 -21 6 -3 12 0 12 6 0 20 18 11
58 -30 22 -22 56 -45 76 -50 30 -8 36 -14 36 -38 0 -16 11 -40 25 -55 14 -15
25 -35 25 -44 1 -9 14 -33 30 -52 31 -35 38 -64 20 -75 -5 -3 -10 -21 -10 -39
0 -19 -7 -39 -15 -46 -10 -9 -12 -16 -6 -24 6 -7 8 -22 4 -34 -4 -18 -8 -20
-19 -11 -11 9 -16 5 -24 -16 -15 -40 -4 -65 30 -65 33 0 40 -14 33 -67 -5 -37
-3 -41 30 -61 20 -11 43 -33 53 -49 10 -15 24 -33 32 -40 20 -16 9 -40 -28
-61 -28 -16 -46 -40 -36 -49 2 -2 15 -1 30 3 17 4 29 17 38 39 7 20 24 41 43
51 31 16 33 16 63 -6 16 -12 35 -19 41 -16 6 4 40 -7 77 -24 36 -16 73 -30 83
-30 10 0 26 -9 36 -20 10 -11 25 -20 34 -20 8 0 32 -12 52 -26 29 -20 37 -32
37 -53 -1 -16 2 -33 6 -39 4 -6 -2 -17 -14 -24 -12 -8 -20 -23 -20 -41 0 -29
-31 -50 -58 -39 -15 5 -62 -35 -62 -54 0 -18 -27 -25 -39 -10 -6 7 -8 16 -4
19 3 4 -8 10 -25 13 -18 4 -32 10 -32 14 0 17 -53 -5 -62 -26 -9 -19 -19 -24
-47 -24 -29 0 -44 8 -70 36 -30 31 -37 34 -65 27 -17 -4 -45 -7 -63 -6 -30 1
-32 -1 -35 -35 l-3 -37 -45 3 c-31 2 -49 9 -59 23 -19 26 -31 24 -31 -6 0 -14
-5 -25 -10 -25 -6 0 -16 11 -22 25 -14 30 -24 31 -40 5 -8 -12 -24 -20 -41
-20 -20 0 -30 -7 -37 -24 -5 -14 -19 -32 -32 -40 -27 -18 -68 -17 -68 0 0 7
-15 15 -32 19 -46 10 -78 32 -78 54 0 24 -25 34 -50 21 -13 -7 -21 -7 -25 0
-3 5 -14 10 -23 10 -11 0 -18 8 -19 22 -1 13 -7 24 -13 26 -5 2 -10 15 -10 28
0 13 -5 24 -11 24 -8 0 -8 4 0 14 8 9 8 21 2 39 -5 14 -7 34 -4 46 4 15 1 21
-11 21 -11 0 -16 -9 -16 -30 0 -38 -20 -40 -21 -2 0 15 -2 44 -4 64 -5 43 6
54 35 38 17 -9 20 -8 20 10 0 11 -5 20 -11 20 -14 0 -38 30 -39 48 0 6 7 12
16 12 8 0 12 5 9 10 -3 6 -1 10 4 10 6 0 11 -7 11 -15 0 -8 7 -15 15 -15 12 0
14 4 5 19 -6 12 -6 22 -1 26 6 3 10 40 10 82 0 73 -1 77 -35 111 -18 19 -34
36 -34 39 0 14 -31 31 -54 29 -17 -2 -26 2 -26 10 0 8 7 14 15 14 8 0 15 4 15
9 0 5 -7 14 -15 21 -19 16 -19 44 -1 59 8 7 19 26 25 43 10 27 9 30 -8 25 -20
-5 -81 50 -81 74 0 27 31 48 63 42 20 -4 28 -3 24 4 -4 6 0 16 8 23 12 10 15
10 15 -3 0 -9 5 -19 12 -23 8 -5 9 2 5 24 -5 27 -3 32 12 32 10 0 24 -7 31
-15 11 -13 14 -13 27 0 8 8 12 23 9 32 -6 19 5 44 20 45 44 2 84 30 106 74 24
50 47 64 55 34 7 -26 23 -26 23 -1 0 23 25 30 90 26 25 -2 46 -4 48 -4z m1150
-22 c-2 -6 -8 -10 -13 -10 -5 0 -11 4 -13 10 -2 6 4 11 13 11 9 0 15 -5 13
-11z m-1952 -88 c2 -22 -1 -43 -6 -46 -6 -3 -10 -1 -10 5 0 6 -8 9 -18 6 -10
-4 -26 0 -36 7 -17 13 -17 14 -1 30 9 9 25 17 36 17 11 0 19 7 19 17 0 32 13
3 16 -36z m-96 -207 c-1 -4 4 -11 12 -15 11 -7 10 -11 -2 -19 -12 -7 -17 -3
-22 17 -7 26 2 59 10 35 2 -6 3 -14 2 -18z m1160 -254 c0 -5 -2 -10 -4 -10 -3
0 -8 5 -11 10 -3 6 -1 10 4 10 6 0 11 -4 11 -10z m-873 -377 c-4 -3 -2 -12 4
-20 9 -10 8 -13 -5 -13 -10 0 -14 5 -11 10 3 6 1 10 -5 10 -6 0 -8 5 -5 10 3
6 11 10 17 10 6 0 8 -3 5 -7z m103 -23 c17 -10 14 -15 -17 -24 -19 -6 -23 -3
-23 13 0 22 16 27 40 11z m-90 -48 c0 -13 -28 -47 -34 -42 -10 10 6 50 20 50
8 0 14 -4 14 -8z m170 -9 c0 -5 -5 -15 -10 -23 -8 -12 -10 -11 -10 8 0 12 5
22 10 22 6 0 10 -3 10 -7z m0 -83 c0 -5 -7 -10 -15 -10 -8 0 -15 5 -15 10 0 6
7 10 15 10 8 0 15 -4 15 -10z m21 -17 c-8 -15 -10 -15 -11 -2 0 17 10 32 18
25 2 -3 -1 -13 -7 -23z m-333 -55 c-3 -7 -13 -15 -24 -17 -16 -3 -17 -1 -5 13
16 19 34 21 29 4z m112 -45 c24 -21 26 -43 5 -43 -8 0 -15 9 -15 20 0 11 -4
20 -10 20 -5 0 -10 5 -10 10 0 14 7 13 30 -7z m814 -42 c6 -9 -26 -21 -54 -21
-9 1 -5 7 10 15 30 17 37 18 44 6z m-734 -6 c0 -2 -9 -9 -20 -15 -16 -9 -20
-8 -20 5 0 8 9 15 20 15 11 0 20 -2 20 -5z m1258 -408 c4 -43 -10 -48 -34 -12
-13 21 -14 28 -4 40 20 24 35 12 38 -28z m3912 -676 c0 -5 -9 -7 -20 -4 -11 3
-20 7 -20 9 0 2 9 4 20 4 11 0 20 -4 20 -9z m-4079 -144 c-10 -9 -11 -8 -5 6
3 10 9 15 12 12 3 -3 0 -11 -7 -18z m512 -789 c15 -7 27 -19 27 -25 0 -18 -19
-16 -26 2 -5 11 -10 13 -19 5 -13 -11 -25 -4 -25 17 0 16 9 16 43 1z m-3360
-48 c-3 -11 -7 -20 -9 -20 -2 0 -4 9 -4 20 0 11 4 20 9 20 5 0 7 -9 4 -20z m7
-100 c0 -5 -5 -10 -11 -10 -5 0 -7 5 -4 10 3 6 8 10 11 10 2 0 4 -4 4 -10z
m3780 0 c0 -5 -4 -10 -9 -10 -6 0 -13 5 -16 10 -3 6 1 10 9 10 9 0 16 -4 16
-10z m-60 -10 c0 -5 -2 -10 -4 -10 -3 0 -8 5 -11 10 -3 6 -1 10 4 10 6 0 11
-4 11 -10z m-4486 -157 c-7 -16 -14 -38 -14 -50 0 -14 -6 -23 -16 -23 -12 0
-14 9 -12 37 2 28 9 41 28 50 14 7 26 13 27 13 1 0 -5 -12 -13 -27z m-306
-156 c2 -12 -3 -17 -17 -17 -12 0 -21 6 -21 13 0 31 32 34 38 4z m1299 -19
c-3 -8 -6 -5 -6 6 -1 11 2 17 5 13 3 -3 4 -12 1 -19z m-1573 -313 c21 -32 20
-34 -9 -45 -46 -18 -68 7 -45 51 14 26 34 24 54 -6z m-1314 -254 c0 -13 -25
-20 -40 -11 -10 6 -8 9 6 13 31 8 34 7 34 -2z m1723 -182 c-17 -17 -37 -1 -22
17 8 10 15 12 23 4 7 -7 7 -13 -1 -21z m4352 -60 c-3 -4 -12 -6 -20 -3 -8 4
-13 10 -10 15 3 4 12 6 20 3 8 -4 13 -10 10 -15z m-3475 -209 c0 -12 -33 -30
-56 -30 -16 0 -16 1 1 20 19 21 55 27 55 10z m268 -44 c3 -12 -1 -17 -10 -14
-7 3 -15 13 -16 22 -3 12 1 17 10 14 7 -3 15 -13 16 -22z m-3827 1 c-1 -12
-15 -9 -19 4 -3 6 1 10 8 8 6 -3 11 -8 11 -12z m2574 -107 c3 -6 -1 -13 -10
-16 -19 -8 -30 0 -20 15 8 14 22 14 30 1z m-3725 -235 c0 -8 -4 -15 -10 -15
-5 0 -10 7 -10 15 0 8 5 15 10 15 6 0 10 -7 10 -15z m-312 -142 c2 -9 -7 -13
-27 -13 -23 0 -29 4 -24 16 6 17 44 15 51 -3z m-260 -214 c-1 -13 -7 -23 -13
-22 -13 3 -18 30 -11 50 10 24 29 1 24 -28z m-570 -261 c-3 -7 -13 -15 -24
-17 -16 -3 -17 -1 -5 13 16 19 34 21 29 4z m-1328 -2985 c-11 -17 -11 -17 -6
0 3 10 6 24 7 30 0 9 2 9 5 0 3 -7 0 -20 -6 -30z m-87 -178 c-3 -9 -8 -14 -10
-11 -3 3 -2 9 2 15 9 16 15 13 8 -4z m14639 -1607 c8 -7 23 -43 33 -80 14 -53
21 -66 31 -57 10 8 16 -1 28 -42 9 -29 16 -62 16 -74 0 -27 18 -45 46 -45 25
0 39 14 48 50 4 14 13 48 21 75 8 28 17 62 20 77 3 17 21 37 52 58 45 31 49
32 122 26 42 -4 96 -11 121 -16 48 -11 457 -45 655 -55 66 -4 135 -8 154 -10
19 -2 70 -7 113 -11 l79 -7 -3 -41 -3 -41 -95 -6 c-52 -3 -108 -2 -125 2 -16
5 -113 13 -215 19 -202 13 -370 24 -554 39 -71 6 -128 6 -142 0 -29 -10 -64
-65 -64 -99 0 -14 -9 -38 -20 -55 -11 -16 -20 -40 -20 -51 0 -12 -11 -29 -24
-37 -17 -11 -28 -32 -35 -67 -16 -76 -45 -109 -93 -108 -27 0 -42 6 -49 20 -7
12 -17 17 -29 13 -20 -6 -21 -2 -54 125 -10 36 -24 85 -32 110 -8 25 -14 52
-14 59 0 8 -11 27 -25 41 -33 34 -71 166 -54 186 14 17 90 18 111 2z m-15082
-118 c0 -5 -4 -10 -10 -10 -5 0 -10 5 -10 10 0 6 5 10 10 10 6 0 10 -4 10 -10z
m15654 -72 c9 -12 16 -35 16 -51 0 -16 4 -26 10 -22 6 3 10 18 10 33 1 20 6
13 20 -28 11 -30 19 -65 20 -77 0 -12 4 -32 9 -45 5 -13 17 -56 26 -97 21 -91
13 -105 -55 -93 -33 6 -46 13 -48 27 -6 31 -13 34 -74 37 -52 2 -58 0 -86 -30
-17 -18 -40 -32 -53 -32 -32 0 -71 38 -60 59 4 9 14 38 20 65 7 27 19 58 27
70 7 11 14 30 14 43 0 13 12 30 30 43 23 16 30 29 30 55 0 47 22 65 80 65 39
0 52 -4 64 -22z m304 -14 c12 -8 22 -25 22 -38 0 -15 12 -31 38 -47 28 -18 38
-33 43 -59 8 -49 18 -20 21 65 l3 70 52 3 52 3 3 -148 c2 -81 1 -168 -2 -193
l-5 -45 -53 -3 -52 -3 -20 45 c-11 26 -25 46 -33 46 -7 0 -24 12 -38 26 l-24
26 -10 -64 -10 -63 -50 0 -50 0 4 190 c2 129 7 192 15 197 19 13 71 9 94 -8z
m505 -53 c27 -4 58 -18 71 -30 14 -13 29 -20 35 -17 14 9 31 -26 25 -50 -4
-16 -13 -20 -52 -19 -84 2 -90 4 -98 28 -9 29 -25 39 -41 25 -32 -27 2 -61 72
-73 22 -4 50 -13 62 -21 12 -8 29 -11 37 -8 11 4 16 -5 21 -40 8 -54 -6 -122
-25 -118 -7 2 -21 -5 -32 -15 -17 -15 -37 -18 -125 -16 -61 1 -110 7 -118 13
-8 6 -22 32 -31 57 -14 35 -15 46 -5 52 14 9 91 -3 120 -19 11 -5 38 -10 60
-10 63 0 50 23 -24 44 -36 10 -85 31 -110 47 -43 27 -45 31 -45 74 0 86 69
118 203 96z m-16557 -887 c3 -38 1 -44 -17 -44 -23 0 -34 23 -23 48 4 9 6 23
5 31 -1 7 1 20 4 30 6 14 7 14 17 -3 6 -10 12 -38 14 -62z m24 -218 c0 -13
-20 -26 -41 -26 -14 0 -11 28 4 33 23 10 37 7 37 -7z m1820 -1766 c0 -5 -4
-10 -10 -10 -5 0 -10 5 -10 10 0 6 5 10 10 10 6 0 10 -4 10 -10z"/>
<path d="M17362 23338 c7 -20 58 -23 58 -4 0 11 -10 16 -31 16 -20 0 -29 -4
-27 -12z"/>
<path d="M16060 20805 c0 -9 5 -15 11 -13 6 2 11 8 11 13 0 5 -5 11 -11 13 -6
2 -11 -4 -11 -13z"/>
<path d="M15570 20066 c0 -9 5 -16 10 -16 6 0 10 4 10 9 0 6 -4 13 -10 16 -5
3 -10 -1 -10 -9z"/>
<path d="M15896 19783 c-3 -7 -11 -12 -17 -11 -6 2 -16 -10 -21 -25 -14 -40
10 -66 46 -49 23 10 25 8 39 -26 l14 -36 6 29 c3 17 5 41 5 54 1 13 5 27 11
30 5 4 -10 16 -34 27 -35 16 -45 18 -49 7z"/>
<path d="M16838 19313 c6 -2 18 -2 25 0 6 3 1 5 -13 5 -14 0 -19 -2 -12 -5z"/>
<path d="M16880 19210 c0 -6 7 -10 15 -10 8 0 15 2 15 4 0 2 -7 6 -15 10 -8 3
-15 1 -15 -4z"/>
<path d="M18190 19419 c0 -5 4 -8 9 -5 5 4 12 0 14 -6 3 -8 6 -6 6 5 1 9 -6
17 -14 17 -8 0 -15 -5 -15 -11z"/>
<path d="M17390 19079 c0 -5 5 -7 10 -4 6 3 10 8 10 11 0 2 -4 4 -10 4 -5 0
-10 -5 -10 -11z"/>
<path d="M17902 15580 c-11 -18 -10 -20 15 -20 16 0 23 4 17 8 -6 4 -13 13
-15 20 -3 8 -8 5 -17 -8z"/>
<path d="M17495 14810 c-3 -5 3 -10 15 -10 12 0 18 5 15 10 -3 6 -10 10 -15
10 -5 0 -12 -4 -15 -10z"/>
<path d="M16615 14717 c-4 -10 -5 -21 -1 -24 10 -10 18 4 13 24 -4 17 -4 17
-12 0z"/>
<path d="M16615 14510 c4 -6 11 -8 16 -5 14 9 11 15 -7 15 -8 0 -12 -5 -9 -10z"/>
<path d="M22410 4765 c-10 -12 -9 -16 5 -21 19 -8 40 9 31 25 -10 15 -21 14
-36 -4z"/>
<path d="M20005 26588 c-4 -10 -4 -26 0 -35 8 -17 8 -17 12 0 3 9 3 25 0 35
-4 16 -4 16 -12 0z"/>
<path d="M17926 26565 c4 -15 2 -25 -5 -25 -6 0 -11 -9 -11 -20 0 -23 10 -26
28 -8 18 18 16 78 -3 78 -11 0 -14 -7 -9 -25z"/>
<path d="M19930 26565 c0 -8 5 -15 10 -15 6 0 10 7 10 15 0 8 -4 15 -10 15 -5
0 -10 -7 -10 -15z"/>
<path d="M18030 26488 c0 -7 5 -20 10 -28 8 -12 10 -11 10 7 0 12 -4 25 -10
28 -5 3 -10 0 -10 -7z"/>
<path d="M20210 26345 c-7 -14 -10 -28 -6 -32 10 -10 50 33 42 46 -11 17 -21
13 -36 -14z"/>
<path d="M20770 26271 c0 -10 -7 -21 -15 -25 -8 -3 -15 -15 -15 -26 0 -15 7
-20 29 -20 38 0 42 7 28 53 -13 40 -27 49 -27 18z"/>
<path d="M20975 26180 c-8 -12 20 -24 35 -15 6 3 8 11 5 16 -8 12 -32 12 -40
-1z"/>
<path d="M16450 26129 c0 -5 5 -7 10 -4 6 3 10 8 10 11 0 2 -4 4 -10 4 -5 0
-10 -5 -10 -11z"/>
<path d="M21524 25909 c-3 -6 -2 -15 4 -21 13 -13 32 -2 32 18 0 16 -26 19
-36 3z"/>
<path d="M21726 25781 c-4 -7 -5 -15 -2 -18 9 -9 19 4 14 18 -4 11 -6 11 -12
0z"/>
<path d="M15710 25686 c0 -15 37 -32 47 -22 3 3 3 12 0 21 -8 19 -47 20 -47 1z"/>
<path d="M22598 25183 c7 -3 16 -2 19 1 4 3 -2 6 -13 5 -11 0 -14 -3 -6 -6z"/>
<path d="M14965 25131 c-7 -12 12 -24 25 -16 11 7 4 25 -10 25 -5 0 -11 -4
-15 -9z"/>
<path d="M14690 24851 c13 -25 33 -28 28 -4 -2 10 -11 19 -21 21 -16 3 -17 1
-7 -17z"/>
<path d="M22798 24579 c-24 -14 -23 -32 1 -24 11 3 29 0 40 -7 18 -11 24 -10
43 10 l22 22 -31 0 c-17 0 -37 2 -45 5 -7 2 -21 0 -30 -6z"/>
<path d="M22996 24375 c-3 -9 0 -15 9 -15 16 0 20 16 6 24 -5 3 -11 -1 -15 -9z"/>
<path d="M16316 23662 c-12 -51 -47 -100 -76 -104 -14 -2 -26 -11 -28 -20 -3
-14 1 -16 27 -8 23 6 35 5 46 -7 8 -8 13 -18 10 -23 -3 -4 -7 -41 -10 -82 -3
-40 -6 -82 -8 -93 -1 -11 3 -22 8 -25 6 -3 14 17 19 45 4 28 12 59 17 70 5 11
7 44 6 73 -2 40 2 57 15 69 22 20 22 46 -1 98 l-18 40 -7 -33z"/>
<path d="M16686 23545 c5 -27 8 -65 7 -83 -1 -20 2 -30 9 -26 14 9 1 135 -16
151 -4 4 -4 -14 0 -42z"/>
<path d="M16141 23413 c-5 -10 -5 -36 -1 -58 4 -22 9 -33 10 -25 1 8 2 19 1
24 -1 4 5 19 14 32 15 24 13 44 -5 44 -5 0 -13 -8 -19 -17z"/>
<path d="M16210 23339 c0 -5 5 -7 10 -4 6 3 10 8 10 11 0 2 -4 4 -10 4 -5 0
-10 -5 -10 -11z"/>
<path d="M16351 23304 c0 -11 3 -14 6 -6 3 7 2 16 -1 19 -3 4 -6 -2 -5 -13z"/>
<path d="M16106 23233 c-14 -48 8 -333 25 -333 5 0 9 42 9 93 0 78 3 97 18
110 10 10 24 17 31 17 17 0 29 40 21 70 -10 37 -33 31 -43 -12 -13 -55 -27
-46 -27 17 0 41 -4 55 -14 55 -8 0 -17 -8 -20 -17z"/>
<path d="M16226 23125 c-18 -42 -21 -112 -6 -135 6 -9 10 -10 10 -3 0 6 5 46
11 88 6 42 8 79 5 82 -3 3 -12 -12 -20 -32z"/>
<path d="M16820 23138 c0 -7 5 -20 10 -28 8 -12 10 -11 10 7 0 12 -4 25 -10
28 -5 3 -10 0 -10 -7z"/>
<path d="M16895 23110 c-3 -5 -2 -10 4 -10 5 0 13 5 16 10 3 6 2 10 -4 10 -5
0 -13 -4 -16 -10z"/>
<path d="M16174 22908 c-4 -7 -9 -32 -10 -56 -1 -41 -1 -42 17 -26 12 11 19
31 19 56 0 38 -12 49 -26 26z"/>
<path d="M17552 22495 c0 -16 2 -22 5 -12 2 9 2 23 0 30 -3 6 -5 -1 -5 -18z"/>
<path d="M17560 22385 c0 -16 6 -25 16 -25 11 0 14 5 10 16 -3 9 -6 20 -6 25
0 5 -4 9 -10 9 -5 0 -10 -11 -10 -25z"/>
<path d="M17690 22359 c0 -5 5 -7 10 -4 6 3 10 8 10 11 0 2 -4 4 -10 4 -5 0
-10 -5 -10 -11z"/>
<path d="M17561 22334 c0 -11 3 -14 6 -6 3 7 2 16 -1 19 -3 4 -6 -2 -5 -13z"/>
<path d="M17822 22123 c5 -25 28 -28 28 -4 0 12 -6 21 -16 21 -9 0 -14 -7 -12
-17z"/>
<path d="M17535 21910 c3 -5 8 -10 11 -10 2 0 4 5 4 10 0 6 -5 10 -11 10 -5 0
-7 -4 -4 -10z"/>
<path d="M15037 21593 c-11 -10 -8 -43 3 -43 6 0 10 11 10 25 0 26 -2 29 -13
18z"/>
<path d="M14956 21554 c-7 -19 2 -37 15 -29 12 8 12 45 0 45 -5 0 -12 -7 -15
-16z"/>
<path d="M15030 21511 c0 -17 5 -31 10 -31 6 0 10 11 10 24 0 14 -4 28 -10 31
-6 4 -10 -7 -10 -24z"/>
<path d="M14960 21438 c0 -18 -3 -43 -6 -55 -5 -17 -2 -23 10 -23 12 0 16 10
18 40 0 22 1 45 2 52 1 6 -5 13 -11 16 -9 2 -13 -7 -13 -30z"/>
<path d="M16600 21417 c0 -19 10 -27 26 -20 21 8 17 33 -6 33 -11 0 -20 -6
-20 -13z"/>
<path d="M13883 21313 c-18 -7 -16 -43 1 -43 13 0 26 20 26 41 0 10 -8 10 -27
2z"/>
<path d="M14960 21300 c0 -11 5 -20 10 -20 6 0 10 9 10 20 0 11 -4 20 -10 20
-5 0 -10 -9 -10 -20z"/>
<path d="M13958 21204 c-5 -4 -8 -46 -7 -93 0 -67 2 -81 10 -61 6 13 17 32 26
42 13 15 14 20 3 33 -7 9 -16 32 -19 51 -3 20 -9 32 -13 28z"/>
<path d="M14865 20977 c-4 -10 -5 -21 -1 -24 10 -10 18 4 13 24 -4 17 -4 17
-12 0z"/>
<path d="M14860 20850 c0 -19 3 -21 12 -12 9 9 9 15 0 24 -9 9 -12 7 -12 -12z"/>
<path d="M15066 20754 c-9 -23 -8 -24 24 -24 32 0 42 23 14 34 -24 9 -31 7
-38 -10z"/>
<path d="M14955 20630 c-16 -16 -25 -33 -22 -37 8 -7 67 45 67 59 0 16 -17 8
-45 -22z"/>
<path d="M14018 20565 c-6 -30 -3 -43 8 -33 3 4 4 19 2 35 l-3 28 -7 -30z"/>
<path d="M14080 20547 c0 -14 -9 -31 -22 -40 -13 -8 -20 -18 -16 -22 9 -9 89
56 85 69 -2 6 -13 12 -25 14 -18 3 -22 -2 -22 -21z"/>
<path d="M14880 20409 c0 -5 5 -7 10 -4 6 3 10 8 10 11 0 2 -4 4 -10 4 -5 0
-10 -5 -10 -11z"/>
<path d="M15390 20000 c0 -5 5 -10 11 -10 5 0 7 5 4 10 -3 6 -8 10 -11 10 -2
0 -4 -4 -4 -10z"/>
<path d="M14030 19705 c-13 -14 -29 -25 -37 -25 -8 0 -13 -13 -13 -37 l-1 -38
-14 25 -14 25 -1 -23 c0 -13 -8 -36 -18 -50 -10 -15 -19 -38 -20 -51 0 -13
-10 -32 -21 -43 -14 -12 -21 -32 -21 -56 -1 -20 -4 -55 -9 -78 -4 -22 -4 -49
-1 -60 4 -10 4 -23 0 -29 -15 -19 -32 -127 -35 -228 -2 -65 3 -157 17 -257 11
-85 24 -186 29 -225 5 -38 10 -76 11 -82 1 -7 6 -13 11 -13 5 0 3 -7 -4 -17
-11 -13 -11 -17 -1 -21 15 -5 45 -60 38 -71 -3 -4 5 -46 18 -92 17 -63 28 -87
45 -95 12 -6 29 -20 37 -30 14 -18 15 -16 10 22 -3 23 1 80 9 125 8 46 17 162
20 258 3 95 10 182 15 192 6 9 7 25 4 34 -5 11 2 24 21 39 22 17 28 32 30 69
5 76 32 142 62 156 24 11 24 26 0 26 -8 0 -12 18 -12 50 1 39 4 50 16 49 11
-1 14 6 11 22 -2 14 0 24 7 24 19 0 12 42 -8 47 -22 6 -55 82 -45 107 3 9 3
24 -1 34 -12 30 -13 82 -1 75 6 -4 5 1 -3 11 -16 19 -24 180 -10 207 6 11 3
21 -6 29 -8 7 -15 9 -15 4 0 -4 -5 -3 -12 4 -20 20 -63 14 -88 -13z m94 -213
c3 -5 -1 -9 -9 -9 -8 0 -12 4 -9 9 3 4 7 8 9 8 2 0 6 -4 9 -8z m73 -274 c-3
-8 -6 -5 -6 6 -1 11 2 17 5 13 3 -3 4 -12 1 -19z"/>
<path d="M14527 19572 c-4 -33 -2 -62 5 -78 9 -20 9 -30 -1 -46 -9 -15 -10
-23 -2 -31 8 -8 11 -5 11 11 0 12 9 26 21 32 19 11 19 13 5 29 -9 10 -17 31
-17 47 -1 16 -4 43 -8 59 -6 27 -8 25 -14 -23z"/>
<path d="M14490 19480 c0 -5 7 -10 15 -10 8 0 15 5 15 10 0 6 -7 10 -15 10 -8
0 -15 -4 -15 -10z"/>
<path d="M14460 19434 c0 -8 5 -12 10 -9 6 3 10 10 10 16 0 5 -4 9 -10 9 -5 0
-10 -7 -10 -16z"/>
<path d="M23100 19425 c0 -17 5 -25 13 -22 6 2 12 12 12 22 0 10 -6 20 -12 23
-8 2 -13 -6 -13 -23z"/>
<path d="M14420 19350 c0 -5 5 -10 10 -10 6 0 10 5 10 10 0 6 -4 10 -10 10 -5
0 -10 -4 -10 -10z"/>
<path d="M14455 19285 c-6 -8 -22 -16 -38 -17 -30 -3 -43 -29 -67 -138 -7 -30
-17 -60 -22 -67 -18 -22 3 -33 60 -33 56 0 132 26 146 49 4 6 0 20 -8 32 -16
24 -11 49 10 49 10 0 14 15 14 55 0 60 -11 69 -40 33 -17 -21 -19 -21 -25 -5
-4 9 -5 26 -2 37 6 24 -14 27 -28 5z"/>
<path d="M14696 19212 c-4 -18 -5 -36 -2 -39 11 -12 17 5 14 39 l-3 33 -9 -33z"/>
<path d="M14630 19086 c0 -16 5 -23 15 -22 9 1 15 5 15 9 0 4 0 14 0 22 0 8
-7 15 -15 15 -9 0 -15 -9 -15 -24z"/>
<path d="M14618 18938 c-59 -68 -130 -156 -153 -191 -10 -16 -23 -26 -29 -24
-7 3 -20 -1 -30 -9 -11 -7 -24 -11 -29 -7 -6 4 -8 0 -4 -11 4 -10 7 -20 7 -22
0 -2 7 -4 15 -4 9 0 15 -9 15 -25 0 -16 -6 -25 -16 -25 -9 0 -12 5 -8 13 4 6
-4 1 -19 -12 -16 -14 -43 -25 -71 -28 -48 -6 -60 -25 -34 -51 10 -10 8 -14
-10 -18 -12 -4 -22 -11 -22 -16 0 -6 -6 -8 -13 -5 -27 10 -43 -17 -46 -78 -6
-132 -3 -178 12 -186 8 -5 18 -20 21 -34 4 -14 13 -25 20 -25 22 0 65 -57 59
-78 -3 -15 3 -22 27 -31 33 -11 36 -24 15 -74 -5 -12 -3 -17 6 -15 7 2 13 -4
14 -12 0 -9 8 -14 20 -12 70 12 229 -9 256 -34 8 -8 23 -14 32 -14 9 0 21 -9
27 -20 17 -31 40 -25 40 11 0 76 -42 168 -76 169 -17 0 -35 183 -22 221 7 22
14 27 21 20 18 -18 27 -13 27 14 0 14 11 67 25 119 14 52 25 106 25 121 0 39
18 69 34 55 11 -8 15 -5 18 13 6 32 -1 47 -22 47 -23 0 -30 27 -30 115 0 54
-5 78 -22 105 -11 19 -24 48 -27 63 l-6 29 -47 -54z"/>
<path d="M14761 17884 c0 -11 3 -14 6 -6 3 7 2 16 -1 19 -3 4 -6 -2 -5 -13z"/>
<path d="M15975 17840 c-3 -5 -1 -10 4 -10 6 0 11 5 11 10 0 6 -2 10 -4 10 -3
0 -8 -4 -11 -10z"/>
<path d="M15996 17771 c-15 -16 -15 -19 -1 -24 9 -4 15 -1 15 7 0 8 5 16 12
18 8 3 9 6 1 11 -6 4 -18 -2 -27 -12z"/>
<path d="M16156 16071 c-4 -7 -5 -15 -2 -18 9 -9 19 4 14 18 -4 11 -6 11 -12
0z"/>
<path d="M15955 15690 c3 -5 11 -10 16 -10 6 0 7 5 4 10 -3 6 -11 10 -16 10
-6 0 -7 -4 -4 -10z"/>
<path d="M15945 15460 c-4 -6 -3 -16 3 -22 6 -6 12 -6 17 2 4 6 3 16 -3 22 -6
6 -12 6 -17 -2z"/>
<path d="M15710 15230 c0 -6 7 -10 15 -10 8 0 15 2 15 4 0 2 -7 6 -15 10 -8 3
-15 1 -15 -4z"/>
<path d="M15765 15210 c3 -5 10 -10 16 -10 5 0 9 5 9 10 0 6 -7 10 -16 10 -8
0 -12 -4 -9 -10z"/>
<path d="M15715 15190 c3 -5 13 -10 21 -10 8 0 14 5 14 10 0 6 -9 10 -21 10
-11 0 -17 -4 -14 -10z"/>
<path d="M15810 14910 c0 -5 4 -10 9 -10 6 0 13 5 16 10 3 6 -1 10 -9 10 -9 0
-16 -4 -16 -10z"/>
<path d="M16348 14193 c7 -3 16 -2 19 1 4 3 -2 6 -13 5 -11 0 -14 -3 -6 -6z"/>
<path d="M16430 14164 c0 -8 5 -12 10 -9 6 4 8 11 5 16 -9 14 -15 11 -15 -7z"/>
<path d="M16346 14152 c-2 -4 -1 -14 5 -22 7 -12 9 -10 9 8 0 23 -5 28 -14 14z"/>
<path d="M16394 14078 c-4 -6 -2 -14 4 -16 7 -2 12 -15 12 -28 0 -23 19 -35
21 -14 1 6 2 14 3 19 0 5 4 13 9 17 4 4 7 13 7 21 0 16 -46 17 -56 1z"/>
<path d="M16491 14033 c0 -6 -4 -20 -7 -30 -5 -14 -4 -15 5 -7 7 7 11 20 8 30
-3 11 -5 14 -6 7z"/>
<path d="M16350 14002 c0 -10 5 -23 12 -30 9 -9 9 -18 0 -37 -7 -15 -9 -31 -6
-37 8 -13 34 46 34 76 0 22 -17 46 -32 46 -4 0 -8 -8 -8 -18z"/>
<path d="M16523 13974 c-4 -11 -13 -13 -33 -9 -16 3 -31 2 -34 -3 -3 -6 2 -8
12 -5 16 4 18 0 14 -27 -3 -21 -8 -28 -15 -21 -6 6 -16 3 -28 -12 -16 -19 -20
-20 -29 -7 -8 13 -13 11 -34 -12 l-25 -27 29 -6 c30 -7 39 -20 19 -27 -9 -3
-9 -10 1 -27 10 -19 10 -25 -1 -32 -19 -12 -29 -11 -29 1 0 6 -9 10 -20 10
-21 0 -44 -34 -37 -55 3 -7 0 -18 -6 -24 -8 -8 -17 -4 -32 16 -12 14 -26 23
-32 20 -12 -8 -5 -57 9 -57 15 0 78 -52 73 -60 -7 -11 54 -92 74 -97 50 -13
72 -151 30 -189 -12 -10 -23 -18 -25 -16 -5 2 -3 -8 3 -26 3 -7 3 -21 0 -32
-3 -11 1 -27 9 -34 8 -8 12 -21 9 -29 -3 -7 0 -27 6 -43 10 -24 13 -26 16 -11
4 14 11 18 29 14 24 -4 28 2 25 36 -2 12 5 17 22 17 14 0 28 -7 32 -17 5 -15
9 -12 21 16 8 19 17 31 20 28 4 -3 13 1 21 9 13 13 13 17 -6 33 -22 19 -28 41
-11 41 6 0 10 -7 10 -15 0 -18 19 -20 22 -2 0 6 2 17 2 22 1 6 5 16 10 23 13
21 -3 72 -23 72 -24 0 -55 36 -48 55 8 19 26 19 33 0 10 -25 23 -17 22 15 -1
22 -6 30 -20 30 -10 0 -18 5 -18 10 0 6 13 10 29 10 25 0 31 6 41 35 12 38 7
70 -10 60 -5 -3 -10 1 -10 9 0 9 -4 16 -10 16 -5 0 -10 5 -10 10 0 6 15 10 34
10 39 0 53 14 36 35 -10 12 -10 15 1 15 10 0 10 3 1 12 -10 10 -17 10 -33 0
-25 -16 -36 -9 -18 10 7 8 25 12 41 10 31 -5 34 -1 16 28 -9 14 -10 29 -2 60
11 39 11 40 -15 41 -14 1 -29 1 -33 0 -5 0 -8 4 -8 10 0 11 -16 9 -53 -6 -13
-5 -16 -3 -11 8 3 8 0 18 -6 22 -8 5 -6 13 6 26 14 15 14 21 4 34 -16 20 -49
19 -57 -1z m-53 -174 c0 -11 -4 -20 -10 -20 -5 0 -10 9 -10 20 0 11 5 20 10
20 6 0 10 -9 10 -20z m165 -10 c-3 -5 -10 -10 -16 -10 -5 0 -9 5 -9 10 0 6 7
10 16 10 8 0 12 -4 9 -10z m-240 -240 c-3 -5 -10 -10 -16 -10 -5 0 -9 5 -9 10
0 6 7 10 16 10 8 0 12 -4 9 -10z"/>
<path d="M16651 13964 c0 -11 3 -14 6 -6 3 7 2 16 -1 19 -3 4 -6 -2 -5 -13z"/>
<path d="M16830 13860 c0 -11 5 -20 10 -20 6 0 10 9 10 20 0 11 -4 20 -10 20
-5 0 -10 -9 -10 -20z"/>
<path d="M16730 13670 c0 -5 5 -10 10 -10 6 0 10 5 10 10 0 6 -4 10 -10 10 -5
0 -10 -4 -10 -10z"/>
<path d="M16687 13634 c6 -16 19 -18 27 -5 3 5 -3 11 -13 14 -14 3 -18 1 -14
-9z"/>
<path d="M17266 13361 c-3 -5 1 -11 9 -15 9 -3 15 0 15 9 0 16 -16 20 -24 6z"/>
<path d="M16354 13322 c-14 -9 -11 -99 5 -115 17 -17 21 -5 11 38 -6 25 -5 44
0 49 22 22 8 45 -16 28z"/>
<path d="M17310 13255 c0 -25 4 -35 16 -35 22 0 53 32 36 38 -6 2 -12 10 -12
18 0 8 -9 14 -20 14 -16 0 -20 -7 -20 -35z"/>
<path d="M16371 13171 c-7 -5 -9 -11 -4 -14 6 -4 19 0 29 8 15 11 16 14 4 15
-8 0 -21 -4 -29 -9z"/>
<path d="M16476 13092 c-2 -4 2 -15 9 -26 17 -23 55 -13 55 15 0 14 -7 19 -29
19 -17 0 -32 -3 -35 -8z"/>
<path d="M17340 12990 c0 -5 7 -7 15 -4 8 4 15 8 15 10 0 2 -7 4 -15 4 -8 0
-15 -4 -15 -10z"/>
<path d="M17820 12432 c0 -5 7 -15 15 -22 8 -7 15 -9 15 -6 0 4 -7 14 -15 22
-8 9 -15 11 -15 6z"/>
<path d="M17872 12420 c0 -14 2 -19 5 -12 2 6 2 18 0 25 -3 6 -5 1 -5 -13z"/>
<path d="M18203 12305 c-18 -20 -17 -22 17 -17 17 2 30 10 30 18 0 18 -31 17
-47 -1z"/>
<path d="M14150 12290 c0 -11 7 -20 15 -20 8 0 15 9 15 20 0 11 -7 20 -15 20
-8 0 -15 -9 -15 -20z"/>
<path d="M18132 12291 c-30 -5 -32 -8 -19 -25 17 -23 57 -13 57 15 0 10 -1 18
-2 18 -2 -1 -18 -4 -36 -8z"/>
<path d="M12217 11524 c-11 -11 3 -24 18 -18 8 4 12 10 9 15 -6 11 -18 12 -27
3z"/>
<path d="M17900 11261 c-6 -12 -7 -21 -1 -21 10 0 24 30 17 37 -2 3 -9 -5 -16
-16z"/>
<path d="M34872 3201 c-9 -5 4 -10 40 -14 49 -4 67 -2 57 7 -10 9 -85 15 -97
7z"/>
<path d="M34501 3178 c-9 -14 -19 -18 -36 -14 -18 5 -25 1 -30 -13 -8 -26 -32
-34 -40 -13 -6 16 -8 16 -20 -1 -9 -12 -28 -19 -54 -20 -61 -3 -34 -16 39 -20
43 -2 75 2 95 11 20 10 30 11 33 3 4 -13 42 -15 42 -2 0 4 19 11 41 14 50 7
71 23 49 38 -12 8 -9 10 12 6 16 -2 25 0 21 6 -3 5 0 13 6 17 7 4 -23 7 -66 8
-69 0 -81 -3 -92 -20z"/>
<path d="M34988 3193 c7 -3 16 -2 19 1 4 3 -2 6 -13 5 -11 0 -14 -3 -6 -6z"/>
<path d="M35030 3186 c0 -7 7 -19 16 -27 13 -10 17 -10 25 2 12 20 6 32 -19
36 -14 2 -22 -2 -22 -11z"/>
<path d="M35127 3193 c-4 -3 1 -12 11 -19 22 -17 29 -17 29 1 0 8 -4 12 -9 9
-4 -3 -8 0 -8 5 0 12 -13 15 -23 4z"/>
<path d="M36155 2470 c-3 -5 1 -10 9 -10 9 0 16 5 16 10 0 6 -4 10 -9 10 -6 0
-13 -4 -16 -10z"/>
<path d="M35550 2424 c0 -9 7 -14 17 -12 25 5 28 28 4 28 -12 0 -21 -6 -21
-16z"/>
<path d="M36157 1650 c-9 -12 -23 -19 -42 -17 -23 2 -29 -3 -36 -26 -6 -23 -5
-27 6 -23 8 3 40 -2 72 -10 32 -8 68 -13 81 -11 12 2 22 0 22 -4 0 -5 21 -9
48 -9 34 0 43 3 32 10 -10 6 -11 10 -2 10 8 0 12 16 12 45 0 49 -1 51 -30 33
-15 -10 -22 -10 -31 -1 -8 8 -18 9 -29 3 -19 -10 -60 -2 -60 11 0 16 -29 9
-43 -11z"/>
<path d="M35220 109 c0 -6 -4 -7 -10 -4 -5 3 -10 2 -10 -3 0 -8 22 -22 35 -22
11 0 11 29 -1 34 -8 3 -14 1 -14 -5z"/>
<path d="M35286 106 c8 -20 35 -29 48 -16 7 7 5 10 -4 10 -13 0 -13 2 0 10 11
7 7 10 -17 10 -24 0 -31 -4 -27 -14z"/>
</g>
</svg>
